<?xml version="1.0" standalone="no"?>
<!DOCTYPE svg PUBLIC "-//W3C//DTD SVG 20010904//EN"
 "http://www.w3.org/TR/2001/REC-SVG-20010904/DTD/svg10.dtd">
<svg version="1.0" xmlns="http://www.w3.org/2000/svg" viewBox="0 0 512.000000 512.000000"
 preserveAspectRatio="xMidYMid meet">

<g transform="translate(0.000000,512.000000) scale(0.100000,-0.100000)"
fill="#000000" stroke="none">
<path d="M1183 3823 c-17 -10 -46 -38 -65 -63 -42 -56 -70 -61 -151 -24 -167
74 -297 73 -462 -6 -177 -85 -317 -252 -415 -498 -67 -166 -84 -259 -84 -457
0 -197 16 -302 68 -431 80 -196 198 -310 371 -354 209 -53 419 2 623 166 137
109 226 223 315 400 25 50 53 94 62 98 9 3 29 -1 46 -9 24 -13 29 -22 29 -53
0 -20 -11 -73 -25 -117 -32 -100 -42 -209 -25 -269 15 -55 63 -114 106 -132
89 -37 223 3 307 90 24 25 49 46 55 46 6 0 27 -24 45 -53 70 -109 162 -160
286 -159 93 0 167 31 263 109 64 53 82 62 94 53 7 -7 14 -18 14 -24 0 -22 71
-96 113 -117 49 -25 136 -28 190 -6 20 9 59 36 85 61 62 58 85 59 112 6 43
-84 105 -111 193 -86 62 18 116 62 187 151 28 36 58 65 66 65 8 0 27 -21 43
-46 68 -110 202 -144 327 -83 23 11 67 42 98 69 76 66 95 66 140 -5 43 -66 83
-89 144 -82 52 6 85 28 131 88 42 55 48 57 57 22 11 -41 -12 -254 -29 -271
-12 -11 -36 -12 -153 -2 -297 26 -461 -19 -554 -154 -69 -101 -79 -196 -29
-294 69 -139 228 -199 419 -158 219 47 404 202 475 399 22 61 24 62 96 99 134
68 228 162 313 312 68 120 71 180 11 208 -36 16 -69 -2 -103 -56 -15 -25 -38
-64 -52 -87 -34 -56 -166 -196 -176 -186 -10 10 6 171 61 605 24 191 41 359
38 375 -6 28 -55 77 -78 77 -31 0 -66 -22 -85 -52 -26 -42 -42 -102 -74 -266
-37 -186 -89 -305 -151 -346 -54 -35 -109 -1 -120 76 -10 65 11 221 45 339 16
57 30 121 30 141 0 68 -67 115 -137 96 -64 -17 -99 -104 -138 -339 -31 -188
-65 -266 -154 -357 -82 -84 -131 -87 -175 -12 -19 31 -21 52 -21 185 l0 150
54 150 c114 317 172 493 191 580 26 116 36 286 21 343 -27 97 -106 136 -189
93 -73 -37 -117 -120 -156 -291 -23 -98 -82 -461 -111 -678 -29 -221 -36 -243
-119 -411 -71 -143 -93 -171 -135 -171 -46 0 -56 27 -55 155 1 108 52 416 154
925 52 258 50 393 -5 452 -71 77 -162 34 -226 -107 -55 -122 -107 -385 -125
-635 -4 -52 -10 -102 -15 -111 -6 -12 -29 -18 -85 -22 -97 -7 -164 -39 -231
-110 -57 -60 -80 -100 -129 -230 -50 -130 -86 -194 -155 -270 -93 -103 -163
-132 -234 -97 -53 26 -88 88 -83 147 l3 38 65 13 c86 17 145 47 198 100 109
109 139 310 65 431 -62 99 -199 125 -326 63 -119 -59 -174 -147 -232 -371 -19
-71 -41 -144 -50 -163 -43 -83 -105 -136 -145 -123 -34 11 -36 53 -5 165 39
143 42 194 13 245 -31 54 -93 85 -169 85 -71 0 -84 13 -76 77 7 62 -12 98 -58
113 -62 20 -121 -11 -158 -86 -12 -23 -16 -56 -14 -125 2 -109 -6 -129 -103
-264 -111 -153 -219 -246 -349 -297 -44 -17 -77 -22 -156 -22 -94 -1 -105 1
-167 32 -111 54 -172 142 -204 294 -23 105 -14 353 16 463 92 338 246 518 445
519 170 2 218 -87 159 -294 -32 -111 -28 -163 17 -211 27 -29 33 -31 76 -26
66 7 105 51 133 149 54 187 78 252 142 376 53 102 68 142 68 175 0 51 -21 84
-66 103 -43 18 -53 18 -91 -3z m1139 -990 c36 -33 12 -141 -47 -211 -67 -77
-134 -72 -121 10 16 101 85 218 128 218 12 0 30 -7 40 -17z m733 -87 c19 -13
20 -25 19 -184 -2 -166 -3 -173 -28 -217 -15 -25 -44 -56 -64 -70 -120 -79
-189 -12 -180 178 3 81 8 103 36 160 55 110 159 174 217 133z m1287 -1015 c53
-3 99 -9 103 -13 11 -11 -25 -69 -75 -119 -112 -111 -313 -166 -405 -109 -40
25 -55 48 -55 85 0 65 61 125 151 149 58 16 129 18 281 7z"/>
</g>
</svg>
