<?xml version="1.0" standalone="no"?>
<!DOCTYPE svg PUBLIC "-//W3C//DTD SVG 20010904//EN"
 "http://www.w3.org/TR/2001/REC-SVG-20010904/DTD/svg10.dtd">
<svg version="1.0" xmlns="http://www.w3.org/2000/svg" viewBox="0 0 512.000000 512.000000"
 preserveAspectRatio="xMidYMid meet">

<g transform="translate(0.000000,512.000000) scale(0.100000,-0.100000)"
fill="#000000" stroke="none">
<path d="M2455 5104 c-539 -29 -1013 -200 -1434 -517 -119 -90 -319 -282 -423
-407 -309 -370 -515 -855 -569 -1340 -15 -135 -15 -425 0 -560 51 -452 223
-883 504 -1259 92 -124 364 -396 488 -488 375 -280 808 -454 1259 -504 135
-15 427 -15 555 0 492 57 944 246 1324 551 122 99 335 318 428 441 280 373
450 798 504 1264 15 128 15 420 0 555 -50 446 -227 891 -494 1245 -80 106
-110 141 -236 268 -354 362 -812 607 -1316 706 -163 32 -436 53 -590 45z
m1560 -969 c-28 -24 -53 -44 -57 -45 -5 0 -8 -143 -8 -317 l0 -318 34 -27 c19
-15 43 -47 55 -71 20 -42 21 -57 21 -445 0 -444 0 -444 -63 -511 -118 -124
-324 -77 -383 86 -18 51 -20 761 -2 830 8 33 26 61 60 97 l48 50 -2 208 -3
208 -206 -177 -207 -176 19 -43 c47 -112 60 -269 33 -401 -33 -159 -100 -261
-272 -413 -120 -108 -168 -170 -177 -235 -14 -92 19 -139 195 -281 258 -207
360 -337 396 -503 49 -231 -33 -473 -218 -646 -149 -140 -323 -222 -573 -272
-127 -25 -453 -25 -579 0 -378 76 -606 295 -606 581 0 161 52 278 180 406 173
173 411 262 805 300 66 6 121 13 122 14 1 1 -15 27 -37 57 -75 102 -98 229
-61 334 l19 55 -122 0 c-224 0 -362 54 -506 199 -115 116 -173 235 -188 387
l-7 69 -389 5 -389 5 574 517 574 517 985 1 984 0 -49 -45z"/>
<path d="M2339 3777 c-210 -88 -290 -311 -224 -626 49 -236 182 -444 327 -515
136 -66 309 -43 433 58 147 121 166 412 45 723 -62 161 -174 298 -288 351 -82
39 -213 43 -293 9z"/>
<path d="M2510 1899 c-179 -23 -304 -61 -411 -125 -286 -171 -284 -565 4 -752
85 -56 164 -87 288 -112 88 -19 127 -21 254 -17 162 5 229 19 330 66 170 80
263 231 253 410 -9 155 -89 265 -323 442 l-131 99 -100 -1 c-54 -1 -128 -5
-164 -10z"/>
</g>
</svg>
