<?xml version="1.0" standalone="no"?>
<!DOCTYPE svg PUBLIC "-//W3C//DTD SVG 20010904//EN"
 "http://www.w3.org/TR/2001/REC-SVG-20010904/DTD/svg10.dtd">
<svg version="1.0" xmlns="http://www.w3.org/2000/svg" viewBox="0 0 512.000000 512.000000"
 preserveAspectRatio="xMidYMid meet">

<g transform="translate(0.000000,512.000000) scale(0.100000,-0.100000)"
fill="#000000" stroke="none">
<path d="M2335 5109 c-884 -77 -1678 -623 -2069 -1423 -154 -315 -232 -603
-258 -961 -25 -341 26 -697 148 -1040 82 -231 253 -532 415 -731 646 -795
1690 -1130 2672 -858 699 193 1293 687 1612 1339 40 83 87 188 104 235 250
696 202 1440 -136 2080 -480 910 -1464 1448 -2488 1359z m475 -399 c661 -80
1243 -450 1591 -1011 160 -257 271 -577 309 -889 13 -109 13 -391 0 -500 -80
-661 -450 -1243 -1011 -1591 -257 -160 -577 -271 -889 -309 -109 -13 -392 -13
-500 0 -844 104 -1543 673 -1804 1470 -77 235 -106 422 -106 680 0 258 29 445
106 680 257 783 940 1350 1764 1465 116 16 425 19 540 5z"/>
<path d="M1495 4116 c-39 -18 -80 -62 -99 -108 -77 -183 152 -349 304 -221
138 116 59 344 -119 343 -31 -1 -69 -7 -86 -14z"/>
<path d="M1380 2460 l0 -1080 195 0 195 0 0 1080 0 1080 -195 0 -195 0 0
-1080z"/>
<path d="M2170 2459 l0 -1080 523 4 c573 4 569 3 743 69 151 57 245 119 374
248 167 167 256 329 301 545 23 112 25 301 4 412 -84 442 -426 784 -868 868
-64 12 -175 15 -578 15 l-499 0 0 -1081z m1095 658 c118 -42 181 -81 271 -171
132 -132 191 -266 201 -451 7 -131 -13 -222 -73 -345 -64 -128 -170 -236 -294
-298 -143 -71 -167 -74 -507 -79 l-303 -5 0 692 0 692 313 -4 312 -3 80 -28z"/>
</g>
</svg>
