<?xml version="1.0" encoding="UTF-8" standalone="no"?>
<!-- Created with Inkscape (http://www.inkscape.org/) -->

<svg
   xmlns:dc="http://purl.org/dc/elements/1.1/"
   xmlns:cc="http://creativecommons.org/ns#"
   xmlns:rdf="http://www.w3.org/1999/02/22-rdf-syntax-ns#"
   xmlns:svg="http://www.w3.org/2000/svg"
   xmlns="http://www.w3.org/2000/svg"
   xmlns:sodipodi="http://sodipodi.sourceforge.net/DTD/sodipodi-0.dtd"
   xmlns:inkscape="http://www.inkscape.org/namespaces/inkscape"
   viewBox="0 0 640 640"
   version="1.1"
   id="SVGRoot"
   inkscape:version="0.92.5 (2060ec1f9f, 2020-04-08)"
   sodipodi:docname="razumovsky.svg"
   inkscape:export-filename="/home/xbt573/razumovsky.png"
   inkscape:export-xdpi="96"
   inkscape:export-ydpi="96">
  <defs
     id="defs966">
    <inkscape:path-effect
       effect="bspline"
       id="path-effect4915"
       is_visible="true"
       weight="33.333333"
       steps="2"
       helper_size="0"
       apply_no_weight="true"
       apply_with_weight="true"
       only_selected="false" />
    <inkscape:path-effect
       effect="bspline"
       id="path-effect4969"
       is_visible="true"
       weight="33.333333"
       steps="2"
       helper_size="0"
       apply_no_weight="true"
       apply_with_weight="true"
       only_selected="false" />
    <inkscape:path-effect
       effect="bspline"
       id="path-effect3737"
       is_visible="true"
       weight="33.333333"
       steps="2"
       helper_size="0"
       apply_no_weight="true"
       apply_with_weight="true"
       only_selected="false" />
    <inkscape:path-effect
       effect="bspline"
       id="path-effect3757"
       is_visible="true"
       weight="33.333333"
       steps="2"
       helper_size="0"
       apply_no_weight="true"
       apply_with_weight="true"
       only_selected="false" />
    <inkscape:path-effect
       effect="bspline"
       id="path-effect3777"
       is_visible="true"
       weight="33.333333"
       steps="2"
       helper_size="0"
       apply_no_weight="true"
       apply_with_weight="true"
       only_selected="false" />
    <inkscape:path-effect
       effect="bspline"
       id="path-effect3781"
       is_visible="true"
       weight="33.333333"
       steps="2"
       helper_size="0"
       apply_no_weight="true"
       apply_with_weight="true"
       only_selected="false" />
    <inkscape:path-effect
       effect="bspline"
       id="path-effect3785"
       is_visible="true"
       weight="33.333333"
       steps="2"
       helper_size="0"
       apply_no_weight="true"
       apply_with_weight="true"
       only_selected="false" />
    <inkscape:path-effect
       effect="bspline"
       id="path-effect3808"
       is_visible="true"
       weight="33.333333"
       steps="2"
       helper_size="0"
       apply_no_weight="true"
       apply_with_weight="true"
       only_selected="false" />
    <inkscape:path-effect
       effect="bspline"
       id="path-effect3812"
       is_visible="true"
       weight="33.333333"
       steps="2"
       helper_size="0"
       apply_no_weight="true"
       apply_with_weight="true"
       only_selected="false" />
    <inkscape:path-effect
       effect="bspline"
       id="path-effect3816"
       is_visible="true"
       weight="33.333333"
       steps="2"
       helper_size="0"
       apply_no_weight="true"
       apply_with_weight="true"
       only_selected="false" />
    <inkscape:path-effect
       effect="bspline"
       id="path-effect3820"
       is_visible="true"
       weight="33.333333"
       steps="2"
       helper_size="0"
       apply_no_weight="true"
       apply_with_weight="true"
       only_selected="false" />
  </defs>
  <sodipodi:namedview
     id="base"
     pagecolor="#ffffff"
     bordercolor="#666666"
     borderopacity="1.0"
     inkscape:pageopacity="1"
     inkscape:pageshadow="2"
     inkscape:zoom="0.35"
     inkscape:cx="548.57143"
     inkscape:cy="-22.857143"
     inkscape:document-units="px"
     inkscape:current-layer="layer1"
     showgrid="false"
     inkscape:window-width="1008"
     inkscape:window-height="733"
     inkscape:window-x="7"
     inkscape:window-y="26"
     inkscape:window-maximized="0"
     units="in" />
  <metadata
     id="metadata969">
    <rdf:RDF>
      <cc:Work
         rdf:about="">
        <dc:format>image/svg+xml</dc:format>
        <dc:type
           rdf:resource="http://purl.org/dc/dcmitype/StillImage" />
        <dc:title></dc:title>
      </cc:Work>
    </rdf:RDF>
  </metadata>
  <g
     inkscape:label="Layer 1"
     inkscape:groupmode="layer"
     id="layer1">
    <g
       style="display:inline"
       id="g1026"
       transform="matrix(3.7795276,0,0,3.7795276,-36.448416,-155.3629)">
      <path
         transform="scale(0.26458333)"
         inkscape:connector-curvature="0"
         id="path4749"
         d="m 491.41087,460.11022 c -0.0913,-0.0881 -2.95039,-0.51903 -5.16215,-0.77811 -0.27779,-0.0325 -0.95964,-0.25818 -1.51523,-0.50144 -0.55558,-0.24325 -1.74882,-0.50509 -2.65165,-0.58188 -0.90282,-0.0768 -1.87292,-0.29015 -2.15576,-0.47416 -0.33085,-0.21523 -1.32166,-0.33356 -2.77793,-0.33178 -2.65273,0.003 -3.71379,-0.26022 -4.59449,-1.14092 -0.35322,-0.35322 -0.8256,-0.65091 -1.04972,-0.66154 -0.22413,-0.0106 -0.63479,-0.071 -0.91258,-0.13422 -0.2778,-0.0632 -1.59444,-0.10704 -2.92589,-0.0974 -2.45617,0.0177 -3.76637,-0.2561 -3.76637,-0.7871 0,-0.44888 -1.3254,-1.59009 -1.89404,-1.63082 -0.27779,-0.0199 -1.13011,-0.21534 -1.89404,-0.43432 -0.76392,-0.21899 -1.88267,-0.47446 -2.48609,-0.56773 -0.96164,-0.14863 -1.14396,-0.28328 -1.47632,-1.09037 -0.80095,-1.94493 -2.16875,-4.72685 -2.5193,-5.12391 -0.20892,-0.23665 -0.48781,-1.45232 -0.64882,-2.82822 -0.2952,-2.52268 -0.0526,-4.09469 0.73243,-4.74622 0.46398,-0.38507 0.4226,-1.22027 -0.0885,-1.78498 -0.39917,-0.44108 -0.3991,-0.54438 0.001,-1.66138 0.23479,-0.65508 0.42633,-1.38728 0.42564,-1.6271 -0.001,-0.4384 1.72723,-1.44922 2.50843,-1.46694 1.14563,-0.026 1.83253,-0.859 1.83359,-2.2236 3.8e-4,-0.48933 0.0939,-0.56165 0.54338,-0.42021 0.59293,0.18658 1.83419,0.18459 2.44322,-0.004 0.24879,-0.077 0.55665,0.19943 0.86989,0.78108 0.71793,1.33311 1.27545,1.54038 1.82991,0.6803 0.24775,-0.38431 0.67779,-0.88863 0.95563,-1.1207 0.47954,-0.40054 0.52203,-0.39013 0.83711,0.20503 0.18256,0.34484 0.46667,0.57849 0.63135,0.51921 0.16468,-0.0593 0.47149,-0.0198 0.68181,0.0877 0.51323,0.2623 1.01927,-0.18021 1.68006,-1.46912 0.53271,-1.03907 0.53417,-1.0674 0.0552,-1.0674 -0.27061,0 -0.55266,0.15801 -0.62677,0.35114 -0.22784,0.59375 -3.08073,0.76155 -4.7411,0.27887 -1.22366,-0.35573 -1.42175,-0.49878 -1.42175,-1.02674 0,-0.68364 0.50365,-0.79349 1.64625,-0.35908 0.8973,0.34116 1.22464,0.09 0.75557,-0.57965 -0.20983,-0.29958 -0.38152,-0.79545 -0.38152,-1.10193 0,-0.55471 0.65511,-0.83849 3.37285,-1.46105 0.39666,-0.0909 1.13533,-0.55533 1.6415,-1.03214 0.50616,-0.47682 1.22765,-1.10085 1.60329,-1.38674 0.37564,-0.28588 0.62805,-0.66296 0.5609,-0.83795 -0.0672,-0.17498 0.16531,-0.85867 0.51657,-1.5193 0.35126,-0.66063 0.63865,-1.45335 0.63865,-1.76159 0,-0.30824 0.32349,-0.95567 0.71885,-1.43873 0.98941,-1.20884 1.3268,-1.90736 1.14726,-2.37522 -0.0838,-0.21841 -0.0389,-0.3971 0.0998,-0.3971 0.1387,0 0.32264,-0.28073 0.40876,-0.62384 0.0861,-0.34312 0.46777,-0.91734 0.84812,-1.27606 0.74052,-0.6984 1.26136,-0.71446 2.7954,-0.0862 0.76595,0.31369 0.87319,0.30067 1.19955,-0.14566 0.55349,-0.75693 0.43186,-1.09538 -0.46234,-1.28658 -1.69914,-0.36332 -1.87762,-1.09845 -0.612,-2.52072 0.76916,-0.86436 0.89044,-0.91715 1.4361,-0.62512 0.32779,0.17543 0.96169,0.36824 1.40866,0.42848 0.72486,0.0977 0.89434,-0.009 1.56837,-0.98884 0.67203,-0.97676 0.71663,-1.15178 0.40288,-1.58086 -0.19404,-0.26537 -0.35281,-0.73096 -0.35281,-1.03465 0,-0.7459 -0.53327,-1.13705 -1.77777,-1.30397 -0.62782,-0.0842 -0.91606,-0.21607 -0.72729,-0.33274 0.17198,-0.10629 0.47911,-0.12939 0.68252,-0.0513 0.20341,0.0781 0.47551,-0.0469 0.60466,-0.27768 0.32113,-0.57382 2.14722,-1.47391 2.79585,-1.37809 0.34581,0.0511 0.55795,0.29682 0.61253,0.70951 0.1291,0.97625 0.10956,2.29433 -0.0411,2.76888 -0.17111,0.53915 0.68867,1.34669 1.55772,1.46307 0.35618,0.0477 0.81232,0.25144 1.01364,0.45277 0.28097,0.28097 1.10572,0.36604 3.54875,0.36604 h 3.18271 l -0.55703,0.59293 c -0.33034,0.35163 -1.11732,0.71832 -1.93375,0.90104 -1.50612,0.33705 -1.81086,0.57346 -1.29309,1.00317 0.48086,0.39908 2.083,0.41392 3.70088,0.0343 1.6281,-0.38203 2.0076,-0.63593 2.03696,-1.3628 0.0171,-0.42372 0.0677,-0.38352 0.23953,0.1902 0.26294,0.87821 1.2478,1.98058 1.63626,1.83152 0.15413,-0.0591 0.55733,0.10544 0.896,0.36574 0.33868,0.26031 0.74835,0.47582 0.9104,0.4789 0.16204,0.003 0.33251,0.0908 0.37881,0.19502 0.19087,0.42948 1.98195,1.57837 2.46062,1.57837 0.28385,0 0.70225,0.2841 0.92977,0.63134 0.22752,0.34724 0.54266,0.63149 0.7003,0.63166 0.15765,1.7e-4 0.61291,0.28091 1.01169,0.62386 0.56769,0.48822 0.82804,0.56844 1.19956,0.36962 0.26097,-0.13967 0.4745,-0.35569 0.4745,-0.48004 0,-0.12435 0.25569,-0.2654 0.56821,-0.31345 0.54715,-0.0841 1.37952,0.27596 3.18457,1.37767 0.46672,0.28487 1.3672,0.61483 2.00105,0.73325 1.17279,0.2191 2.16997,0.86609 1.93094,1.25284 -0.0726,0.11747 -0.009,0.4432 0.14111,0.72387 0.30004,0.56063 1.02959,0.66164 1.71086,0.23688 0.32491,-0.20257 0.72503,-0.1746 1.54449,0.108 0.81418,0.28077 1.22048,0.30989 1.53997,0.11037 0.33435,-0.20881 0.91085,-0.0889 2.51108,0.52214 2.80208,1.07001 5.57058,1.75611 6.52243,1.6164 0.4307,-0.0632 1.18712,0.0184 1.68092,0.18138 0.74574,0.24611 0.99374,0.22911 1.46418,-0.10041 0.81265,-0.56919 1.54427,-0.49025 2.17455,0.23464 0.63698,0.73259 1.40038,0.78575 4.34036,0.30224 2.22104,-0.36527 4.99041,-0.33734 5.38203,0.0543 0.4932,0.4932 1.89616,0.29024 3.44926,-0.49899 0.83753,-0.4256 1.52278,-0.88384 1.52278,-1.01829 0,-0.13446 0.25569,-0.34257 0.56821,-0.46247 0.44123,-0.16928 0.71173,-0.0834 1.21047,0.38416 0.59678,0.55952 0.68185,0.57443 1.20134,0.21057 0.3075,-0.21538 0.75716,-0.36205 0.99924,-0.32593 0.24208,0.0361 0.82762,-0.13963 1.3012,-0.39056 0.83059,-0.44009 0.90874,-0.44001 2.20971,0.002 1.53702,0.52245 1.74809,1.09255 0.78657,2.12462 -0.81173,0.87129 -0.75015,1.72249 0.2165,2.99258 0.46112,0.60586 0.90578,1.46076 0.98814,1.89978 0.0824,0.43901 0.11353,2.72754 0.0693,5.08562 -0.0765,4.07471 -0.1137,4.35005 -0.75023,5.55009 -0.36836,0.69448 -1.02832,1.96935 -1.46658,2.83304 -0.58399,1.15091 -1.05582,1.71591 -1.76648,2.11533 -0.53331,0.29974 -1.08657,0.80156 -1.22946,1.11518 -0.14289,0.31361 -0.89379,0.93293 -1.66867,1.37627 -0.77487,0.44334 -1.55039,0.93948 -1.72337,1.10254 -0.87978,0.82932 -2.63002,1.73898 -5.36636,2.78908 -1.90241,0.73007 -3.57391,1.56907 -4.48776,2.25259 -2.33866,1.74925 -3.9685,2.4596 -6.17578,2.69165 -2.3922,0.25149 -4.7301,1.08887 -5.76238,2.06396 -0.74282,0.70166 -0.85805,0.72699 -3.30699,0.72699 -2.20116,0 -2.59683,0.0657 -2.98623,0.496 -0.60584,0.66945 -2.25346,1.25543 -3.83247,1.36303 -0.73716,0.0502 -1.61087,0.29991 -2.02031,0.57735 -0.39678,0.26886 -1.31672,0.75861 -2.04432,1.08833 -1.30629,0.59197 -1.3296,0.59342 -1.85812,0.11576 -0.65431,-0.59136 -1.33294,-0.50369 -2.39976,0.31002 -1.0384,0.79202 -2.296,0.99147 -3.81887,0.60563 -1.62344,-0.41132 -8.3459,-0.34907 -9.60123,0.0889 -0.95717,0.33395 -4.67204,0.7627 -4.87886,0.5631 z m -18.02703,-5.31381 c 0.47075,-0.34422 0.4623,-0.36516 -0.21603,-0.53541 -0.80932,-0.20312 -1.06159,-0.0532 -0.84781,0.50394 0.18554,0.48351 0.43552,0.4909 1.06384,0.0315 z m 7.68785,-1.59368 c 1.52022,-0.13141 1.91413,-0.27559 1.60299,-0.58673 -0.15308,-0.15308 -1.11063,-0.18302 -2.48215,-0.0776 l -2.23291,0.17164 0.5875,0.47573 c 0.35503,0.28749 0.74591,0.4044 0.98783,0.29546 0.22017,-0.0992 0.91171,-0.22448 1.53674,-0.2785 z m -15.9796,-0.59838 c -0.62303,-0.16769 -1.08227,0.0962 -0.84252,0.48414 0.10051,0.16262 0.37438,0.14817 0.77955,-0.0411 l 0.62461,-0.29184 z m 63.75825,-0.0272 c -0.13163,-0.13163 -0.7386,-0.12684 -1.46279,0.0116 -0.9377,0.1792 -1.05413,0.24434 -0.48019,0.26867 0.41669,0.0177 0.92427,0.13751 1.12795,0.26634 0.44423,0.28095 1.16153,-0.20007 0.81503,-0.54657 z m -67.09782,-2.97302 c -0.41669,-0.0861 -1.32582,-0.0978 -2.0203,-0.026 l -1.26269,0.13063 1.26269,0.13439 c 0.69448,0.0739 1.60361,0.0856 2.0203,0.026 l 0.75762,-0.10842 z m 8.20951,-3.49113 c 1.22457,-0.41626 1.65524,-1.14081 1.07847,-1.81442 -0.23932,-0.27951 -0.67503,-0.50819 -0.96825,-0.50819 -0.69218,0 -0.93106,-0.25331 -0.60704,-0.64372 0.19092,-0.23005 0.0584,-0.38111 -0.50727,-0.57831 -0.42113,-0.14681 -0.76915,-0.18761 -0.77338,-0.0907 -0.004,0.0969 -0.12351,-0.0226 -0.26508,-0.26568 -0.45699,-0.7846 -1.96039,-0.34403 -2.18476,0.64026 -0.13358,0.58595 -1.08267,1.41201 -1.70662,1.48537 -0.45514,0.0535 -0.73875,0.24855 -0.78006,0.53644 -0.0503,0.35025 0.0515,0.41539 0.45096,0.28861 0.3186,-0.10112 0.45562,-0.0662 0.35829,0.0913 -0.16063,0.2599 0.97805,0.79256 2.11009,0.98708 0.34473,0.0592 0.65437,0.13529 0.6881,0.16901 0.17219,0.1722 2.33431,-0.0345 3.10655,-0.29705 z m -0.0471,-9.07073 c 0.18354,-0.17762 0.67775,-0.32295 1.09825,-0.32295 0.71615,0 2.48237,-0.66711 2.48237,-0.93761 0,-0.0673 -0.34165,-0.4416 -0.75924,-0.83168 -0.41758,-0.39008 -0.83149,-1.07047 -0.91979,-1.51198 -0.16417,-0.82084 -0.47412,-1.06075 -1.43678,-1.11209 -0.66538,-0.0355 -1.42987,0.56846 -1.42987,1.12961 0,0.22664 -0.28411,0.71863 -0.63135,1.09331 -0.34724,0.37468 -0.63134,0.77915 -0.63134,0.89883 0,0.1205 -0.30986,0.12281 -0.69448,0.005 -3.71414,-1.13604 -4.10674,-1.1524 -4.09988,-0.17074 0.007,1.0248 0.33466,1.24057 1.59589,1.05144 0.99388,-0.14904 1.33458,-0.0756 2.31434,0.49852 0.63189,0.37031 1.08915,0.76995 1.01614,0.88808 -0.19492,0.3154 1.70406,-0.29887 2.09574,-0.6779 z m 9.205,0.22583 c 0.46835,-0.46836 0.45857,-0.48512 -0.50889,-0.87223 -0.54253,-0.21707 -1.43249,-0.47417 -1.97767,-0.57132 -0.81637,-0.14548 -0.93555,-0.11778 -0.67557,0.15703 0.17362,0.18353 0.31567,0.57233 0.31567,0.86401 0,0.29168 0.14206,0.67541 0.31568,0.85272 0.42478,0.43383 1.9211,0.17947 2.53078,-0.43021 z m 11.80076,-0.54878 c 0,-0.1389 -0.56151,-0.25254 -1.24779,-0.25254 -0.68628,0 -1.31802,0.11364 -1.40386,0.25254 -0.0969,0.15679 0.37618,0.25254 1.24778,0.25254 0.77213,0 1.40387,-0.11364 1.40387,-0.25254 z m 20.83439,0 c -0.0858,-0.1389 -0.59723,-0.25254 -1.13642,-0.25254 -0.53919,0 -1.05058,0.11364 -1.13642,0.25254 -0.0963,0.15579 0.33906,0.25254 1.13642,0.25254 0.79736,0 1.23271,-0.0967 1.13642,-0.25254 z m -26.457,-0.38572 c 0.70439,-0.49337 0.47535,-1.13204 -0.40219,-1.12148 -0.62411,0.007 -1.7715,0.63326 -1.53291,0.836 0.19915,0.16924 1.11659,0.65576 1.2512,0.66352 0.0733,0.004 0.38102,-0.16589 0.6839,-0.37804 z m -4.22638,-0.48326 c 0,-0.0612 -0.11364,-0.1816 -0.25254,-0.26744 -0.1389,-0.0858 -0.25254,-0.0357 -0.25254,0.11136 0,0.1471 0.11364,0.26745 0.25254,0.26745 0.1389,0 0.25254,-0.0501 0.25254,-0.11137 z m -24.4962,-1.2925 c 0,-0.21654 -0.1155,-0.32233 -0.25666,-0.23509 -0.14116,0.0872 -0.19127,0.26442 -0.11136,0.39372 0.21648,0.35028 0.36802,0.28496 0.36802,-0.15863 z m 24.46643,-8.67392 c 0.27437,-0.17377 0.23433,-0.25747 -0.18714,-0.39124 -0.67712,-0.21491 -1.24889,0.0836 -0.75707,0.3952 0.42703,0.27058 0.5113,0.27023 0.94421,-0.004 z m 3.45834,-0.61926 c 0.72691,-0.49395 0.81559,-0.64598 0.51994,-0.89135 -0.51403,-0.4266 -1.59757,0.12366 -1.74316,0.88524 -0.14451,0.75597 0.11776,0.75729 1.22322,0.006 z m 51.61579,-2.48163 c 0.005,-0.37292 -0.10105,-0.96737 -0.2355,-1.321 -0.29629,-0.7793 -0.77881,-0.67038 -1.96526,0.44361 -1.35128,1.26876 -0.97761,2.13909 1.07329,2.49982 0.59772,0.10513 1.11449,-0.63849 1.12747,-1.62243 z m -38.55173,0.28253 c 1.68121,-0.28835 3.45788,-0.94263 3.45788,-1.27341 0,-0.12381 -0.10969,-0.22512 -0.24377,-0.22512 -0.13407,0 -0.77916,-0.33954 -1.43354,-0.75453 -1.89811,-1.20375 -2.5861,-1.22461 -4.03662,-0.1224 -1.38493,1.05236 -1.71596,1.49839 -1.51014,2.03476 0.18655,0.48614 1.15912,0.87498 1.7945,0.71746 0.27779,-0.0689 1.16505,-0.23842 1.97169,-0.37676 z m -16.89796,0.0268 c 0.35073,-0.13335 0.86901,-0.47377 1.15174,-0.7565 l 0.51403,-0.51403 -0.79394,-0.75874 c -0.86607,-0.82766 -1.39045,-0.93585 -2.08267,-0.42968 -0.37139,0.27157 -0.41893,0.53627 -0.27213,1.51523 0.18695,1.24668 0.37364,1.36548 1.48297,0.94372 z m 4.5514,-0.0899 c 0.66269,-0.48457 0.41577,-1.2922 -0.42473,-1.38918 -0.81594,-0.0941 -1.11722,0.41986 -0.70144,1.19674 0.32808,0.61304 0.50876,0.64391 1.12617,0.19244 z m 5.95545,-0.42525 c -0.49846,-0.32213 -2.20002,-0.32213 -2.39911,0 -0.0973,0.15744 0.39635,0.25109 1.31092,0.24868 1.04034,-0.003 1.35683,-0.0751 1.08819,-0.24868 z m 20.70813,-4.81312 c 0,-0.1307 -0.17046,-0.23764 -0.37881,-0.23764 -0.39052,0 -0.50171,0.29799 -0.21731,0.58239 0.20176,0.20176 0.59612,-0.0263 0.59612,-0.34475 z m -25.21996,-6.71616 c -0.2376,-0.40876 -0.27198,-0.37438 -0.27871,0.27871 -0.006,0.54329 0.0678,0.66953 0.27103,0.46628 0.19974,-0.19974 0.20192,-0.41081 0.008,-0.74499 z m 3.19862,-0.39065 c 0.0989,-0.51339 -0.6557,-1.25898 -1.17334,-1.15929 -0.22272,0.0429 -0.54786,0.36108 -0.72254,0.70709 -0.26605,0.52703 -0.25465,0.67621 0.0703,0.91934 0.49723,0.37208 1.72442,0.0581 1.82561,-0.46714 z m -6.69169,-0.25057 c 0.47917,-0.64424 0.48352,-0.71401 0.0827,-1.32583 -0.51401,-0.78447 -0.89338,-0.80912 -1.77537,-0.11535 -0.50382,0.39631 -0.63235,0.66774 -0.50822,1.07329 0.41652,1.36091 1.3467,1.51639 2.20094,0.36789 z"
         style="fill:none;fill-opacity:1;stroke:none;stroke-width:0.47723743;stroke-linecap:round;stroke-linejoin:bevel;stroke-miterlimit:4;stroke-dasharray:none;stroke-opacity:1;paint-order:stroke fill markers" />
      <path
         transform="scale(0.26458333)"
         inkscape:connector-curvature="0"
         id="path4751"
         d="m 495.79889,422.16886 c -0.0862,-0.2246 -0.0487,-0.70758 0.0833,-1.07329 0.19913,-0.55176 0.3836,-0.65794 1.08385,-0.62385 0.52864,0.0257 1.08506,0.28225 1.48946,0.68666 l 0.64558,0.64557 -0.92535,0.38663 c -1.20243,0.50241 -2.1791,0.49348 -2.3768,-0.0217 z"
         style="fill:none;fill-opacity:1;stroke:none;stroke-width:0.47723743;stroke-linecap:round;stroke-linejoin:bevel;stroke-miterlimit:4;stroke-dasharray:none;stroke-opacity:1;paint-order:stroke fill markers" />
      <path
         transform="scale(0.26458333)"
         inkscape:connector-curvature="0"
         id="path4821"
         d="m 490.67628,383.2205 c -1.21807,0.2067 -1.09866,1.53399 -1.24888,2.40553 -0.60235,0.28958 -1.18176,-0.0325 -1.48169,-0.48387 -2.82386,1.18965 -4.86249,3.72698 -6.90633,5.93612 -4.96063,5.83042 -8.14529,12.92021 -11.1201,19.90575 -1.24493,3.00565 -2.32392,6.75761 -5.68749,8.02093 -3.98964,1.74586 -9.13077,1.84757 -11.84759,5.72995 -3.10094,4.40309 -3.61962,10.05982 -3.60346,15.29665 0.20935,6.38245 2.684,12.55418 6.62453,17.54637 2.52471,3.46978 4.27497,7.41096 5.94206,11.34178 0.34738,0.76336 0.73781,-0.23373 1.09943,-0.13021 0.29234,0.96346 -0.73796,1.74443 -0.28805,2.76312 -0.007,0.51795 0.29912,1.49499 0.94849,0.86218 3.51728,-2.32208 7.30546,-4.39029 11.526,-5.0113 5.2991,-0.65563 10.69708,-0.004 16.00411,-0.49768 0.20328,-0.30166 1.49841,-0.40832 1.31991,0.28558 1.644,0.69636 3.61437,0.45497 5.33684,1.00572 7.2206,1.41584 13.20486,5.96568 19.20152,9.94732 1.70316,0.92862 3.95287,2.47993 5.89446,1.33354 1.64715,-1.56566 1.38765,-4.17949 1.37959,-6.25723 -0.45919,-2.90309 -2.97946,-5.90733 -1.39291,-8.83785 0.32405,-0.417 0.16179,-0.68307 -0.0242,-0.9337 -0.23471,-1.19318 1.17476,-0.7938 1.75988,-1.34753 10.34706,-6.86222 22.92816,-9.38781 33.2872,-16.23328 2.64657,-1.67607 4.67954,-4.31985 5.1334,-7.47062 1.19946,-6.17991 1.19209,-12.53889 0.93737,-18.80537 -0.73925,-4.53648 -4.09517,-8.3513 -7.9372,-10.67466 -3.48227,-1.87285 -7.69807,-1.69169 -11.46779,-1.00226 -0.71021,1.13549 -2.51215,0.94878 -3.7131,1.18969 -2.89834,-0.062 -5.76992,0.53225 -8.63513,0.71519 -0.51317,-0.0532 -1.41466,0.11188 -1.49895,-0.37782 -6.98341,-0.20924 -14.41065,0.76058 -20.8122,-2.67631 -5.2438,-2.65309 -8.89304,-7.4161 -12.38374,-11.96893 -0.36939,0.38506 -0.78002,-0.74796 -1.17391,-0.99585 -0.74551,-0.77811 -1.35922,-1.78133 -1.2474,-2.86275 -0.53273,0.0811 -0.0229,-0.94185 -0.74528,-0.83308 -0.99536,-0.66326 -0.5989,-2.15825 -1.2696,-3.09162 -0.61749,-1.23414 -1.09682,-2.77011 -1.90982,-3.7935 z m 55.26245,29.79161 c 0.60396,-0.0575 1.0268,0.98574 0.0444,0.72407 -0.78458,0.18794 -0.63183,-0.69837 -0.0444,-0.72407 z m -10.39599,1.43532 c 0.85153,-0.004 -0.31459,1.61747 -0.47992,0.50064 -0.16407,-0.32991 0.2062,-0.51401 0.47992,-0.50064 z m -16.21029,48.23084 c 0.52355,0.45924 0.12657,1.51237 0.80694,1.98775 0.55892,0.48488 -0.14449,1.75575 -0.51494,0.76255 -0.16233,-0.87712 -0.45934,-1.91104 -0.45871,-2.73303 0.053,-0.0192 0.11096,-0.0218 0.16671,-0.0173 z"
         style="fill:#ff0000;fill-opacity:1;stroke:none;stroke-width:0.47723743;stroke-linecap:round;stroke-linejoin:bevel;stroke-miterlimit:4;stroke-dasharray:none;stroke-opacity:1;paint-order:stroke fill markers" />
      <path
         transform="scale(0.26458333)"
         inkscape:connector-curvature="0"
         id="path4823"
         d="m 490.40155,383.37242 c -0.89195,0.26748 -1.05874,1.20032 -1.22274,1.95174 -0.61676,0.44396 -1.21333,-0.70834 -1.85409,0.01 -4.43968,2.93401 -7.83413,7.24735 -10.59032,11.74549 -3.32154,5.58109 -5.90662,11.55915 -8.35448,17.55189 -0.98788,2.58972 -3.29382,4.3957 -5.9492,5.04016 -3.57973,1.17709 -7.90202,1.73046 -10.12643,5.17037 -3.02814,4.56036 -3.63372,10.29485 -3.51531,15.64306 0.23061,5.97483 2.5747,11.68163 6.128,16.44057 2.67399,3.59844 4.65194,7.62465 6.28336,11.7781 0.0969,0.53748 0.70032,0.79682 1.01756,0.4306 -0.0815,1.20343 -0.39125,2.69593 0.45673,3.64503 3.98194,-2.99318 8.63754,-5.21781 13.65656,-5.52932 6.70095,-0.4636 13.49997,-0.29437 20.13472,0.80952 7.46626,1.35773 13.76931,5.84191 19.91272,10.02488 1.73251,1.1306 4.35297,2.67913 6.28614,1.13415 1.49243,-1.81109 1.28309,-4.46506 0.94159,-6.64244 -0.71218,-2.71545 -2.73892,-5.78741 -1.06243,-8.50738 0.23886,-0.3137 0.45035,-0.98612 0.0784,-0.98105 0.88435,-0.57243 1.94418,-1.13068 2.80111,-1.85655 9.99557,-5.97921 21.56874,-8.81541 31.45431,-15.01467 2.92832,-1.70647 5.18083,-4.56743 5.67255,-7.9732 0.99217,-6.00692 1.43274,-12.16023 0.97039,-18.23898 -0.8591,-5.83455 -5.63716,-10.91286 -11.36323,-12.24958 -2.82609,-0.38715 -5.81325,-0.42764 -8.57693,0.30433 -1.51374,0.93875 -3.52853,0.61294 -5.23941,0.95502 -2.99769,0.30215 -5.99606,0.63251 -8.98657,0.3417 -7.51643,0.30375 -15.75448,0.54416 -22.2278,-3.90595 -4.4596,-2.89766 -7.59438,-7.47318 -10.74915,-11.50578 0.42238,-0.27974 -0.30114,-0.65165 -0.58843,-0.57216 -0.37661,-0.31989 -1.05396,-1.33108 -0.88092,-1.54729 0.41975,-0.37123 -0.44762,-1.20391 -0.57857,-1.67898 -0.28996,-0.78573 -1.09283,-1.00743 -1.13494,-1.81265 -0.81688,-1.6574 -1.3928,-3.5889 -2.65955,-4.94373 -0.0428,-0.0144 -0.0886,-0.0215 -0.13366,-0.0168 z m 29.1573,80.59567 c 0.078,0.39541 0.80865,1.27248 0.39163,1.52312 -0.3307,-0.41733 -0.36991,-1.01533 -0.39163,-1.52312 z"
         style="fill:#ff0000;fill-opacity:1;stroke:none;stroke-width:0.47723743;stroke-linecap:round;stroke-linejoin:bevel;stroke-miterlimit:4;stroke-dasharray:none;stroke-opacity:1;paint-order:stroke fill markers" />
      <path
         transform="scale(0.26458333)"
         inkscape:connector-curvature="0"
         id="path4825"
         d="m 489.99068,383.58402 c -0.72405,0.25756 -0.6033,1.29941 -1.17638,1.56159 -1.86096,-0.29755 -3.23212,1.5634 -4.56887,2.55991 -6.59864,6.0494 -10.45453,14.33168 -13.98209,22.3957 -1.41277,3.30397 -2.41018,7.61855 -6.20714,8.95651 -3.80553,1.64456 -8.62002,1.74432 -11.33413,5.28111 -3.122,3.74291 -3.63331,8.88113 -3.96071,13.56554 -0.29151,6.55914 1.79297,13.11147 5.69937,18.37609 2.87918,3.75664 4.94412,8.02286 6.74257,12.37437 0.34311,0.65946 1.0501,1.09962 0.82125,1.97493 0.0805,0.75485 0.20945,2.84717 1.27816,1.72586 4.24236,-3.2333 9.41389,-5.08179 14.73581,-5.25844 6.7862,-0.27177 13.69518,-0.0831 20.33623,1.40376 7.17909,1.74547 13.06715,6.38879 19.14061,10.33631 1.43477,0.73898 3.30519,1.81172 4.81155,0.66242 1.78517,-1.37714 1.38746,-4.01216 1.47034,-6.00222 -0.38818,-3.09453 -3.05626,-6.21114 -1.33421,-9.33257 2.41279,-3.4677 6.67038,-4.86578 10.26824,-6.73862 8.28654,-3.89882 17.25202,-6.5561 24.90756,-11.70307 3.07572,-1.99969 4.89239,-5.451 5.2316,-9.0575 0.69883,-5.80214 1.17051,-11.71628 0.50973,-17.54055 -1.29572,-5.66093 -6.15366,-10.54707 -11.93887,-11.49082 -3.21063,-0.27059 -6.5062,-0.16497 -9.59497,0.77882 -2.03447,0.37787 -4.16246,0.49347 -6.17782,0.44342 0.0981,0.69869 -1.09184,0.14475 -1.51621,0.25254 -4.02729,0.007 -8.03889,0.54412 -12.07687,0.31989 -6.56993,0.21197 -13.24926,-1.94974 -18.10982,-6.46317 -3.25946,-2.77273 -5.48958,-6.4519 -8.12019,-9.76662 -0.50568,-0.20757 -0.38473,-0.7266 -0.49225,-1.07082 -0.50069,0.2308 -0.093,-0.7024 -0.50064,-0.96379 -1.55584,-2.57287 -2.71577,-5.4846 -4.25813,-7.97616 -0.20124,0.13186 -0.40248,0.26372 -0.60372,0.39558 z"
         style="fill:#ff0000;fill-opacity:1;stroke:none;stroke-width:0.47723743;stroke-linecap:round;stroke-linejoin:bevel;stroke-miterlimit:4;stroke-dasharray:none;stroke-opacity:1;paint-order:stroke fill markers" />
      <path
         transform="scale(0.26458333)"
         inkscape:connector-curvature="0"
         id="path4827"
         d="m 489.95615,383.60621 c -0.72722,0.49899 -1.09004,1.48129 -2.10366,1.44322 -4.204,2.46865 -7.38995,6.38828 -10.09265,10.38218 -4.10751,6.12007 -6.77092,13.02518 -9.63701,19.76545 -1.10604,2.63717 -3.75062,4.04175 -6.39826,4.67358 -3.32466,1.02406 -7.16167,1.7193 -9.27822,4.80064 -2.75179,3.54029 -3.22001,8.24132 -3.69041,12.55243 -0.44516,6.84445 1.73302,13.73049 5.81803,19.21863 3.54747,4.86556 6.23682,10.34915 7.90189,16.12536 1.69995,-0.42504 3.04596,-1.93609 4.68261,-2.63845 6.75521,-3.63402 14.709,-3.05325 22.11701,-2.70135 6.08624,0.27882 12.19685,1.58863 17.49863,4.68676 4.22031,2.14574 7.75485,5.41688 11.96892,7.54852 1.21071,0.59828 2.68377,0.88162 3.78413,-0.10605 1.57214,-1.55392 1.23341,-4.07983 1.24395,-6.10136 -0.5036,-2.98655 -2.98146,-6.06004 -1.30807,-9.09088 2.41279,-3.4677 6.67038,-4.86578 10.26824,-6.73862 8.28654,-3.89882 17.25202,-6.5561 24.90756,-11.70307 3.07572,-1.99969 4.89239,-5.451 5.2316,-9.0575 0.69883,-5.80214 1.17051,-11.71628 0.50973,-17.54055 -1.50631,-6.31543 -7.39114,-11.86003 -14.11406,-11.62252 -2.58736,0.0726 -5.26021,0.18296 -7.78725,0.53566 0.11345,0.684 -0.71349,0.26704 -1.20596,0.27474 -0.44875,-0.19139 -0.89926,0.0555 -0.90658,0.3571 -4.66364,-0.19864 -9.2911,0.87474 -13.96231,0.7664 -5.61064,0.20684 -11.46054,-0.15749 -16.46017,-2.95609 -5.69056,-2.97119 -9.57004,-8.28111 -13.07474,-13.48592 -0.45414,-0.58679 -0.5816,-1.45507 -1.13544,-2.08443 -1.51986,-2.48494 -2.64086,-5.31127 -4.13926,-7.72165 -0.21275,0.13926 -0.4255,0.27852 -0.63825,0.41777 z"
         style="fill:#ff0000;fill-opacity:1;stroke:none;stroke-width:0.47723743;stroke-linecap:round;stroke-linejoin:bevel;stroke-miterlimit:4;stroke-dasharray:none;stroke-opacity:1;paint-order:stroke fill markers" />
      <path
         transform="scale(0.26458333)"
         inkscape:connector-curvature="0"
         id="path4829"
         d="m 489.74801,383.81929 c -1.86407,1.22019 -3.94112,2.20783 -5.49715,3.88672 -7.78206,7.21154 -11.93448,17.25617 -15.83592,26.88496 -0.96662,2.56644 -3.23488,4.40961 -5.87968,5.02135 -3.48986,1.19626 -7.66265,1.68317 -9.97443,4.92088 -2.85813,3.54225 -3.32517,8.32635 -3.80489,12.69051 -0.44502,6.84447 1.73271,13.73088 5.8184,19.21872 3.64908,4.81058 6.06198,10.41329 7.90842,16.12281 1.61898,-0.38095 2.90675,-1.83414 4.45296,-2.517 6.79364,-3.76032 14.85273,-3.17894 22.33976,-2.82034 6.08624,0.27882 12.19685,1.58863 17.49863,4.68676 4.21731,2.14649 7.75311,5.41077 11.96152,7.54852 1.423,0.74586 3.62406,0.85946 4.39377,-0.85084 1.32318,-2.9554 0.66563,-6.3639 -0.61112,-9.21764 -0.82506,-2.03073 -1.04067,-4.65561 0.73838,-6.26955 3.12241,-3.14278 7.4695,-4.63398 11.36586,-6.5513 7.71779,-3.48228 15.94921,-6.07892 23.01632,-10.85065 3.07572,-1.99969 4.89239,-5.451 5.2316,-9.0575 0.69883,-5.80214 1.17051,-11.71628 0.50973,-17.54055 -1.50443,-6.28139 -7.323,-11.81198 -14.01886,-11.61216 -8.78424,0.1362 -17.43479,2.25266 -26.24325,1.94395 -6.29714,0.18018 -12.91761,-1.16827 -17.8069,-5.37541 -6.67487,-5.48415 -10.815,-13.278 -14.61515,-20.87533 -0.34149,-0.0917 -0.64718,0.47982 -0.948,0.61309 z"
         style="fill:#ff0000;fill-opacity:1;stroke:none;stroke-width:0.47723743;stroke-linecap:round;stroke-linejoin:bevel;stroke-miterlimit:4;stroke-dasharray:none;stroke-opacity:1;paint-order:stroke fill markers" />
      <path
         inkscape:original-d="m 65.581278,131.6604 c -0.0072,-0.12435 -0.01474,-0.24843 -0.02249,-0.37225"
         inkscape:path-effect="#path-effect4915"
         inkscape:connector-curvature="0"
         id="path4913"
         d="m 65.581278,131.6604 c -0.0075,-0.12433 -0.01501,-0.24841 -0.02249,-0.37225"
         style="fill:none;stroke:#000000;stroke-width:0.5;stroke-linecap:butt;stroke-linejoin:miter;stroke-miterlimit:4;stroke-dasharray:none;stroke-opacity:1" />
      <path
         transform="scale(0.26458333)"
         inkscape:connector-curvature="0"
         id="path4923"
         d="m 251.55588,494.31856 c -2.0886,-0.25912 -3.46479,1.85366 -2.97551,3.7565 0.82248,6.919 2.16791,13.88773 4.79576,20.36385 4.65067,9.64813 14.66469,14.77181 22.71719,21.10824 0.97186,0.93207 3.17386,2.16149 2.24492,3.72474 -3.85592,1.63947 -8.78395,-6.8e-4 -12.22659,2.8236 -2.07387,2.81723 -0.0401,6.48004 1.22501,9.2055 3.2802,7.05553 10.5168,10.73192 17.03149,14.22242 2.28509,1.50656 5.36935,2.55658 6.59927,5.14637 -0.50874,1.88503 -3.08364,2.10177 -4.53878,3.01217 -1.39695,0.85509 -4.44336,1.31202 -4.0777,3.50924 1.4988,3.80247 5.13865,6.24462 8.03574,8.94172 10.87276,8.52554 24.50067,12.66167 37.94454,14.96245 12.08354,1.9955 24.41057,1.47266 36.58426,0.78937 9.27624,-0.48886 18.16299,-3.65475 26.22588,-8.14727 10.77728,-5.54819 21.19532,-13.31941 26.28954,-24.66858 4.00548,-9.15639 5.03218,-19.53478 3.64831,-29.39095 -1.90426,-11.94971 -7.05733,-23.40333 -14.69841,-32.77648 -5.86342,-6.20058 -14.46758,-8.51639 -22.34876,-10.99997 -12.15217,-3.55523 -25.15593,-3.70128 -37.49942,-1.04266 -15.76012,2.02448 -31.85165,1.48137 -47.77731,1.51673 -3.29202,0.12266 -6.52299,-0.37203 -9.76144,-0.87177 -5.6419,0.49366 -11.37734,1.36964 -16.99845,0.11221 -6.76103,-1.05732 -12.96177,-4.26677 -19.7124,-5.2774 -0.24186,-0.0153 -0.48469,-0.027 -0.72714,-0.02 z"
         style="fill:#ff7f2a;fill-opacity:1;stroke:none;stroke-width:0.66813242;stroke-linecap:round;stroke-linejoin:bevel;stroke-miterlimit:4;stroke-dasharray:none;stroke-opacity:1;paint-order:stroke fill markers" />
      <path
         transform="scale(0.26458333)"
         inkscape:connector-curvature="0"
         id="path4927"
         d="m 164.15813,535.7524 c -1.69708,-0.0152 -3.40451,0.65188 -4.52206,1.95337 -1.17918,1.32546 -2.10413,2.8992 -2.67089,4.57995 -0.20171,0.52374 0.28355,0.94915 0.7855,0.9643 2.50689,0.78547 4.798,2.11479 7.19431,3.1709 3.63231,1.6604 7.45242,3.03872 11.43196,3.53767 1.04443,-0.002 2.43412,0.0582 3.00831,-1.01077 0.57752,-1.47214 -0.15515,-3.19173 -1.3001,-4.18188 -1.4884,-1.16717 -3.36339,-1.68482 -4.9599,-2.68099 -2.57925,-1.49351 -4.65964,-3.68117 -6.67121,-5.84535 -0.46954,-0.72556 -1.42307,-0.40562 -2.14866,-0.48946 l -0.0884,10e-4 z"
         style="fill:#000000;fill-opacity:1;stroke:none;stroke-width:0.16703311;stroke-linecap:round;stroke-linejoin:bevel;stroke-miterlimit:4;stroke-dasharray:none;stroke-opacity:1;paint-order:stroke fill markers" />
      <path
         transform="scale(0.26458333)"
         inkscape:connector-curvature="0"
         id="path4931"
         d="m 377.34827,288.38068 c -19.57917,-0.27485 -37.69385,8.21258 -55.67404,14.8462 -10.67404,4.67194 -22.15318,7.76181 -33.87302,7.06859 -10.2538,0.0612 -20.14275,-3.11524 -30.1791,-4.69425 -3.67035,0.57301 -2.11275,4.99875 -0.70986,7.01306 4.29394,10.89499 14.17171,17.62366 22.03908,25.69615 1.31496,1.52998 3.56951,4.35327 2.21938,6.17061 -4.52944,0.22542 -9.19899,-2.40035 -13.63805,-1.28439 -2.04869,3.39539 1.91085,7.21334 3.58249,9.99065 3.51972,4.07249 5.93,9.38626 4.25921,14.80781 -7.85612,32.91189 -0.42669,68.78062 18.45996,96.66236 5.77025,8.73307 14.35166,14.95912 21.16426,22.7351 0.34246,1.10864 1.47201,2.45241 2.45002,2.44863 -6.33359,4.0594 -14.46716,4.22838 -20.76159,8.13587 0.24388,2.42438 4.36921,1.13438 6.08166,1.61976 17.63443,0.56145 35.26821,-0.47921 52.72421,-3.0022 16.83064,-1.06724 35.00866,1.25806 48.98095,11.42972 8.77058,7.72653 13.50812,19.18185 16.38912,30.22148 4.40435,17.48321 0.52883,38.20516 -13.99109,50.09699 -12.85006,10.52082 -28.56498,18.40688 -45.46102,18.73999 -24.81103,1.54997 -51.67778,-1.08654 -72.10841,-16.61285 -3.05265,-2.8665 -8.03411,-5.9739 -7.71879,-10.69499 1.70376,-2.8534 6.86886,-2.5658 7.73123,-5.79358 -8.52667,-6.0817 -20.19055,-10.09194 -24.08169,-20.83894 -1.28867,-3.08495 -1.81215,-8.12012 2.53012,-8.84297 3.23732,-1.09397 6.83185,-1.04333 9.99479,-2.1379 -4.92424,-4.59966 -11.63833,-7.98345 -16.6764,-12.88812 -6.31396,-5.28957 -10.32792,-12.80694 -11.90481,-20.83756 -5.66942,-0.98657 -11.34098,2.4655 -17.16455,1.94777 -19.12759,0.26942 -38.62939,-0.0838 -57.17069,-5.18023 -7.50431,-1.83867 -14.17029,-5.91437 -21.20289,-8.87397 -3.99511,-0.68201 -4.13325,5.04746 -3.71507,7.69254 2.46417,11.71668 9.56588,21.92696 16.85179,31.18728 3.36615,4.85074 9.53935,6.43768 13.23063,10.79995 1.69239,2.7257 -0.81405,5.83621 -3.86285,4.73844 -6.80577,-0.71924 -12.62736,-5.08429 -19.28661,-6.04217 -3.90529,1.71645 -2.14536,6.52435 -0.43918,9.21034 2.33339,3.47861 3.34452,8.68209 7.19398,10.80271 0.95091,0.55626 0.73316,2.65803 2.18485,3.2538 2.00179,2.17515 5.02552,4.11104 7.44119,5.04366 5.59315,5.76122 13.99651,8.6774 18.22043,15.91957 6.42273,10.26887 9.84624,22.71229 19.55502,30.6758 15.26405,14.85356 33.40608,26.94045 53.76213,33.53855 16.24738,5.65063 33.56531,7.15728 50.56889,8.87676 33.65438,0.20572 67.32787,-1.17809 100.89917,-3.49436 14.14422,-1.18977 27.32667,-7.64765 39.31503,-14.88713 17.27772,-11.738 28.94933,-31.25059 32.16784,-51.78037 0.48391,-14.91613 1.27364,-30.32609 -4.07001,-44.56845 -5.75103,-16.18821 -13.80684,-31.63876 -23.66875,-45.69125 -2.22211,-1.46605 -2.82697,-4.52123 -4.98711,-6.33646 -2.64994,-3.06521 -7.02738,-7.81869 -3.42773,-11.82458 2.77609,-3.75061 7.18929,-6.11995 10.03622,-9.5929 -2.47108,-8.33968 -7.46335,-15.46074 -11.66312,-22.93954 -3.13833,-7.69277 -3.09101,-17.00846 0.13396,-24.70868 2.46684,-5.77193 9.16193,-6.29685 14.04685,-8.83469 4.96931,-3.49529 5.10931,-10.4519 8.37342,-15.18899 4.10373,-7.81002 9.34636,-15.62213 17.26749,-20.03101 1.39054,-2.73214 -1.71146,-5.81399 -1.85692,-8.65584 -5.37038,-17.36364 -10.05059,-36.13613 -23.6133,-49.19622 -8.82115,-9.55564 -18.93124,-18.09239 -30.96436,-23.29397 -17.40885,-8.5053 -36.58024,-13.02404 -55.98436,-12.62158 z m 56.62517,47.91477 c 10.23912,-0.72982 17.42644,8.08973 21.82088,16.24551 6.27236,11.4794 9.56474,25.48048 6.24794,38.25834 -2.70098,4.81786 -5.72772,10.47119 -11.57887,11.8178 -4.70151,2.84388 -10.6051,1.87978 -14.65037,-1.65452 -11.17564,-9.26293 -18.11411,-23.7445 -19.56144,-38.09676 0.0273,-6.96903 -1.1992,-15.38774 3.76755,-21.082 3.56755,-3.73453 8.89161,-5.41066 13.95431,-5.48837 z m -87.69781,90.4641 c 6.35278,2.91363 5.07789,11.20438 6.29048,16.8519 0.19019,6.269 2.87266,12.11732 7.48153,16.36416 5.06189,5.40294 11.85152,10.15986 19.64707,9.06671 8.86362,0.14455 17.82966,-1.77871 26.61594,-0.71815 2.64542,1.75338 -0.86631,4.87155 -2.30638,6.25347 -6.95168,5.62263 -16.61389,5.25115 -25.03462,4.77988 -11.16562,-2.51414 -22.10955,-8.15611 -29.52572,-17.04177 -6.62061,-9.41577 -9.24476,-22.19538 -5.93734,-33.3313 0.48296,-1.09156 1.37687,-2.48439 2.76904,-2.2249 z"
         style="fill:#ffcc00;fill-opacity:1;stroke:none;stroke-width:1.33626485;stroke-linecap:round;stroke-linejoin:bevel;stroke-miterlimit:4;stroke-dasharray:none;stroke-opacity:1;paint-order:stroke fill markers" />
      <path
         transform="scale(0.26458333)"
         inkscape:connector-curvature="0"
         id="path4939"
         d="m 313.69232,485.98027 c -0.26826,0.22071 0.10756,0.61977 0.0924,0.90149 0.19342,0.90547 0.0274,1.8744 -0.56502,2.60021 -1.60343,1.99184 -4.02094,3.0592 -6.25486,4.18826 -0.22894,0.0213 -0.48931,0.43788 -0.12948,0.44643 3.52812,-0.97906 7.09937,-2.04534 10.26226,-3.93985 0.19877,-0.053 0.54492,-0.42846 0.17223,-0.48302 -0.82247,-0.17217 -1.38016,-0.9253 -1.82353,-1.58892 -0.41891,-0.793 -0.96502,-1.56195 -1.67247,-2.11631 -0.0257,-0.0101 -0.0542,-0.0138 -0.0815,-0.008 z"
         style="fill:#ffcc00;fill-opacity:1;stroke:none;stroke-width:0.16703311;stroke-linecap:round;stroke-linejoin:bevel;stroke-miterlimit:4;stroke-dasharray:none;stroke-opacity:1;paint-order:stroke fill markers" />
      <path
         transform="scale(0.26458333)"
         inkscape:connector-curvature="0"
         id="path4941"
         d="m 247.40507,500.91808 c -0.35077,0.23294 -0.3424,0.79105 -0.50461,1.1594 -0.32706,1.17865 -0.52138,2.45985 -0.14691,3.64412 -0.21705,0.43334 -0.80254,0.49204 -1.21155,0.5621 -0.5358,0.68787 -1.01672,1.42517 -1.6571,2.02862 -0.26808,0.22308 0.10818,0.37454 0.31643,0.28191 1.53971,-0.19956 3.09907,-0.29746 4.64799,-0.14312 0.25203,-0.16812 -0.0899,-0.56826 -0.0508,-0.81983 -0.4414,-2.21286 -0.81977,-4.45142 -1.2326,-6.66193 -0.041,-0.043 -0.10352,-0.0568 -0.16089,-0.0513 z"
         style="fill:#ffcc00;fill-opacity:1;stroke:none;stroke-width:0.16703311;stroke-linecap:round;stroke-linejoin:bevel;stroke-miterlimit:4;stroke-dasharray:none;stroke-opacity:1;paint-order:stroke fill markers" />
      <path
         transform="scale(0.26458333)"
         inkscape:connector-curvature="0"
         id="path4943"
         d="m 246.4837,503.88056 c -0.089,0.1103 -0.10761,0.26317 -0.1631,0.39206 -0.21489,0.66013 -0.47077,1.30671 -0.77678,1.93006 -0.0598,0.091 0.0458,0.19811 0.14038,0.15936 0.3767,-0.0666 0.7988,-0.14249 1.06036,-0.44919 0.0652,-0.0817 0.14484,-0.18033 0.084,-0.28778 -0.14437,-0.46493 -0.17762,-0.93569 -0.17251,-1.4169 -0.0159,-0.10696 0.0268,-0.24002 -0.0531,-0.32678 -0.0438,-0.023 -0.0748,-0.0235 -0.11923,-8.3e-4 z"
         style="fill:#ffcc00;fill-opacity:1;stroke:none;stroke-width:0.02952756;stroke-linecap:round;stroke-linejoin:bevel;stroke-miterlimit:4;stroke-dasharray:none;stroke-opacity:1;paint-order:stroke fill markers" />
      <path
         transform="scale(0.26458333)"
         inkscape:connector-curvature="0"
         id="path4945"
         d="m 247.36807,500.56907 c -0.0489,0.0119 -0.075,0.06 -0.0821,0.10652 -0.0244,0.10028 -0.0524,0.20002 -0.0728,0.30111 -0.0108,0.0672 0.059,0.12887 0.12437,0.11039 0.0454,-0.008 0.0687,-0.054 0.10736,-0.0722 0.0617,-0.003 0.10797,-0.0715 0.0923,-0.1274 -0.005,-0.0265 -0.0108,-0.0638 -0.0157,-0.0946 -0.0127,-0.0593 -0.012,-0.12353 -0.0406,-0.17818 -0.0232,-0.0378 -0.0701,-0.0558 -0.11287,-0.0456 z"
         style="fill:#ffcc00;fill-opacity:1;stroke:none;stroke-width:0.00738189;stroke-linecap:round;stroke-linejoin:bevel;stroke-miterlimit:4;stroke-dasharray:none;stroke-opacity:1;paint-order:stroke fill markers" />
      <path
         transform="scale(0.26458333)"
         inkscape:connector-curvature="0"
         id="path4957"
         d="m 302.71404,495.49743 c -3.06776,1.19016 -6.19939,2.21051 -9.3732,3.07929 -0.0707,0.0153 -0.15563,0.0613 -0.13733,0.14766 0.0374,0.10623 0.17094,0.0881 0.25961,0.11415 1.91542,0.32431 3.8607,0.40999 5.79961,0.45989 1.1619,0.0292 2.32423,0.0291 3.4864,0.0379 0.0975,-0.005 0.11023,-0.11162 0.10073,-0.18838 0,-1.1857 0,-2.3714 0,-3.55709 -0.005,-0.068 -0.0704,-0.11473 -0.13582,-0.0934 z"
         style="fill:#ffcc00;fill-opacity:1;stroke:none;stroke-width:0.02087914;stroke-linecap:round;stroke-linejoin:bevel;stroke-miterlimit:4;stroke-dasharray:none;stroke-opacity:1;paint-order:stroke fill markers" />
      <path
         inkscape:original-d="m 65.591861,132.09017 c -0.01077,-0.26761 -0.02177,-0.53495 -0.03307,-0.80202"
         inkscape:path-effect="#path-effect4969"
         inkscape:connector-curvature="0"
         id="path4967"
         d="m 65.591861,132.09017 c -0.01103,-0.2676 -0.02206,-0.53494 -0.03307,-0.80202"
         style="fill:none;stroke:#000000;stroke-width:0.5;stroke-linecap:butt;stroke-linejoin:miter;stroke-miterlimit:4;stroke-dasharray:none;stroke-opacity:1" />
      <a
         style="stroke-width:0.5;stroke-miterlimit:4;stroke-dasharray:none"
         id="a4745">
        <path
           style="fill:none;stroke:#000000;stroke-width:0.5;stroke-linecap:butt;stroke-linejoin:miter;stroke-miterlimit:4;stroke-dasharray:none;stroke-opacity:1"
           d="m 68.461028,80.718896 c 0.425315,0.110267 1.275762,0.330753 2.110375,0.535469 0.834613,0.204715 1.653739,0.393744 2.756033,0.53546 1.102294,0.141717 2.488533,0.236233 3.953076,0.204725 1.464543,-0.03151 3.008218,-0.189026 4.268061,-0.519775 1.259843,-0.330749 2.236466,-0.834812 3.543368,-1.385906 1.306902,-0.551094 2.945332,-1.149751 4.34688,-1.653677 1.401548,-0.503926 2.567202,-0.91348 3.795444,-1.275645 1.228243,-0.362166 2.520012,-0.677232 4.015943,-0.850433 1.495931,-0.173201 3.197232,-0.204709 4.960962,-0.09447 1.76372,0.110241 3.59089,0.362265 5.32315,0.755969 1.73226,0.393703 3.37036,0.929236 4.81918,1.496171 1.44882,0.566935 2.70886,1.165454 3.85847,1.795381 1.14961,0.629927 2.18913,1.291443 3.18126,2.063099 0.99213,0.771655 1.93714,1.653656 2.77182,2.472593 0.83469,0.818937 1.55915,1.574898 2.23634,2.488307 0.67719,0.913409 1.30714,1.984332 1.82687,3.039526 0.51973,1.055194 0.92917,2.09455 1.38593,3.417561 0.45676,1.323011 0.96066,2.929195 1.33721,4.206739 0.37655,1.277544 0.62558,2.225888 1.11388,3.360058 0.4883,1.13418 1.21552,2.4532 2.0202,3.55386 0.80468,1.10066 1.68659,1.98257 2.67889,2.51805 0.99229,0.53549 2.09472,0.72448 3.33879,0.75596 1.24408,0.0315 2.63026,-0.0945 3.98455,-0.25202 1.35428,-0.15748 2.67746,-0.34651 3.62224,-0.2835 0.94478,0.063 1.51186,0.37806 2.09448,0.88193 0.58261,0.50388 1.18116,1.19695 1.43317,2.12602 0.252,0.92908 0.15751,2.09447 0.0788,3.22854 -0.0788,1.13406 -0.14173,2.23623 -0.51965,3.02377 -0.37792,0.78755 -1.0707,1.2599 -1.79531,1.68523 -0.72462,0.42533 -1.48024,0.80314 -2.96111,1.41754 -1.48087,0.61441 -3.68481,1.4645 -4.77165,2.15744 -1.08684,0.69293 -1.05534,1.22832 -0.91356,1.70097 0.14178,0.47265 0.39365,0.88194 0.47243,1.41735 0.0788,0.53541 -0.0157,1.19676 -0.25188,1.57486 -0.23619,0.37811 -0.61399,0.47256 -1.03953,0.37801 -0.42553,-0.0945 -0.89761,-0.37779 -1.41739,-0.74006 -0.51979,-0.36228 -1.08666,-0.80318 -1.63785,-1.1339 -0.55118,-0.33073 -1.08661,-0.5512 -1.5434,-0.75596 -0.45678,-0.20476 -0.83466,-0.3937 -1.89001,-0.55123 -1.05536,-0.15752 -2.78727,-0.28348 -4.14172,-0.23626 -1.35445,0.0472 -2.33076,0.26767 -3.22859,0.75592 -0.89784,0.48825 -1.71653,1.24396 -2.51985,1.93703 -0.80332,0.69308 -1.59051,1.32283 -1.87412,1.88994 -0.28362,0.56711 -0.0632,1.07089 0.31486,1.57499 0.37807,0.5041 0.9134,1.00794 1.55908,1.79535 0.64569,0.78742 1.40165,1.85836 2.04737,2.88205 0.64571,1.02369 1.18115,2.00008 1.7324,3.00807 0.55124,1.00798 1.11814,2.04731 1.70088,3.29153 0.58274,1.24422 1.18115,2.693 1.59064,3.92143 0.40949,1.22844 0.62996,2.23629 0.80322,3.41757 0.17327,1.18129 0.29923,2.53544 0.37799,3.79545 0.0788,1.26002 0.11025,2.42524 -0.063,3.8113 -0.17324,1.38607 -0.55113,2.99211 -1.02362,4.40964 -0.47248,1.41752 -1.03934,2.64571 -1.81113,3.90581 -0.77179,1.2601 -1.74798,2.55118 -2.81901,3.6695 -1.07103,1.11831 -2.2362,2.06304 -3.57504,2.89787 -1.33883,0.83483 -2.85036,1.5591 -4.31517,2.17339 -1.46481,0.61428 -2.88192,1.11814 -4.66182,1.38593 -1.77991,0.26779 -3.92129,0.29929 -7.49662,0.45679 -3.57534,0.1575 -8.582892,0.44095 -12.331233,0.56695 -3.748341,0.126 -6.236546,0.0945 -9.055802,-0.14174 -2.819256,-0.23625 -5.968729,-0.67718 -8.12642,-1.1024 -2.15769,-0.42523 -3.323032,-0.83467 -4.551543,-1.27568 -1.228512,-0.441 -2.519761,-0.91341 -3.921541,-1.59067 -1.401781,-0.67726 -2.913515,-1.5591 -4.378237,-2.58283 -1.464722,-1.02373 -2.882053,-2.18909 -4.141994,-3.29154 -1.259941,-1.10245 -2.362352,-2.14187 -3.197083,-3.24436 -0.834731,-1.10249 -1.401692,-2.26791 -1.937134,-3.46479 -0.535442,-1.19688 -1.039458,-2.42542 -1.858283,-3.40173 -0.818826,-0.97631 -1.952877,-1.70084 -3.181344,-2.50407 -1.228466,-0.80323 -2.551303,-1.68512 -3.496313,-2.6459 -0.94501,-0.96078 -1.511948,-2.00017 -1.984403,-2.96083 -0.472455,-0.96067 -0.850464,-1.84269 -0.88182,-2.42545 -0.03136,-0.58275 0.283672,-0.86628 0.677109,-0.89772 0.393437,-0.0314 0.866321,0.18924 1.417455,0.45693 0.551134,0.2677 1.181248,0.58275 1.905671,0.85047 0.724422,0.26771 1.543508,0.48823 2.094759,0.51964 0.551251,0.0314 0.834795,-0.12612 0.913429,-0.44085 0.07863,-0.31472 -0.0475,-0.78771 -0.362264,-1.0868 -0.314767,-0.2991 -0.818928,-0.42514 -1.338826,-0.72447 -0.519898,-0.29934 -1.055169,-0.77163 -1.637915,-1.40163 -0.582747,-0.63 -1.212684,-1.41742 -2.031625,-2.66158 -0.818941,-1.24416 -1.826919,-2.94512 -2.330862,-4.3626 -0.503944,-1.41748 -0.503944,-2.55146 -0.283352,-3.18132 0.220592,-0.62985 0.661668,-0.75588 1.212511,-0.56701 0.550843,0.18887 1.212773,0.6932 2.078991,1.13417 0.866219,0.44098 1.937213,0.81898 3.055324,1.16543 1.118111,0.34645 2.283703,0.66148 3.716766,0.86619 1.433063,0.20471 3.13422,0.29922 4.409818,0.39371 1.275597,0.0945 2.126171,0.189 3.448862,0.20474 1.322692,0.0157 3.118569,-0.0473 4.45717,-0.11027 1.338601,-0.063 2.220685,-0.126 2.69301,-0.89759 0.472324,-0.77159 0.53534,-2.25247 1.007822,-2.89804 0.472483,-0.64557 1.354589,-0.45655 2.504076,-0.0786 1.149488,0.37792 2.567217,0.94501 4.079119,1.16547 1.511902,0.22045 3.118455,0.0944 4.897939,-0.34651 1.779484,-0.44095 3.732706,-1.19704 4.7405,-1.77981 1.007793,-0.58276 1.0708,-0.99231 0.724593,-1.4959 -0.346207,-0.50358 -1.102711,-1.10248 -2.000452,-1.98447 -0.897742,-0.88199 -1.937133,-2.04737 -2.78759,-3.18132 -0.850458,-1.13395 -1.511927,-2.2364 -2.157618,-3.54354 -0.645691,-1.30715 -1.275695,-2.81916 -1.779646,-4.12629 -0.503951,-1.30713 -0.881958,-2.40965 -1.244151,-4.15766 -0.362193,-1.74801 -0.708718,-4.14219 -0.81894,-6.12652 -0.110222,-1.98434 0.01578,-3.55938 0.283508,-5.11841 0.267727,-1.559031 0.677274,-3.102711 0.74024,-4.063227 0.06297,-0.960516 -0.220571,-1.338569 -0.724496,-1.984222 -0.503925,-0.645654 -1.228461,-1.559198 -1.559161,-2.283773 -0.330699,-0.724574 -0.267701,-1.260059 0.45646,-1.385962 0.72416,-0.125902 2.110828,0.157735 2.772164,0.18914 0.661336,0.03141 0.598332,-0.189112 0.488154,-0.425196 -0.110178,-0.236083 -0.267793,-0.488268 -0.755865,-0.976341 -0.488073,-0.488073 -1.307253,-1.212732 -2.063207,-1.858443 -0.755954,-0.645712 -1.448895,-1.212664 -2.094657,-2.078946 -0.645763,-0.866283 -1.2442,-2.03166 -1.606423,-2.771867 -0.362223,-0.740207 -0.488226,-1.055215 -0.409369,-1.322946 0.07886,-0.267731 0.362464,-0.488314 0.504058,-0.598443 0.141595,-0.110129 0.141575,-0.110125 0.566889,1.42e-4 z"
           id="path3735"
           inkscape:connector-curvature="0"
           inkscape:original-d="m 68.035714,80.608629 c 0.85071,0.220221 1.701157,0.440709 2.551338,0.661459 0.819036,0.188682 1.638162,0.377711 2.456846,0.566965 1.385851,0.09421 2.77209,0.188722 4.157737,0.283482 1.543396,-0.157728 3.087071,-0.315246 4.630208,-0.472472 0.976522,-0.504137 1.953144,-1.0082 2.929316,-1.511903 1.63763,-0.598532 3.27606,-1.197189 4.913691,-1.795388 1.165465,-0.40966 2.331119,-0.819214 3.496281,-1.228421 1.29133,-0.315161 2.5831,-0.630227 3.874254,-0.944941 1.700749,-0.03176 3.402055,-0.06326 5.102675,-0.0945 1.82687,0.25168 3.65404,0.503706 5.48066,0.755955 1.63796,0.535135 3.27606,1.070668 4.91369,1.606399 1.26006,0.598138 2.5201,1.196657 3.77976,1.795386 1.03961,0.661132 2.07913,1.322652 3.1183,1.984375 0.94515,0.88162 1.89015,1.763625 2.83483,2.645833 0.72471,0.755679 1.44917,1.511641 2.17336,2.267857 0.63023,1.070676 1.26018,2.141601 1.88988,3.212799 0.40977,1.039246 0.81921,2.078603 1.22842,3.118302 0.5043,1.606349 1.0082,3.212534 1.51191,4.819198 0.24939,0.94844 0.49842,1.896786 0.7473,2.845826 0.72773,1.31921 1.45494,2.63824 2.18201,3.95775 0.88225,0.88171 1.76416,1.76362 2.64584,2.64583 1.10269,0.18873 2.20512,0.37771 3.30729,0.56697 1.38591,-0.12624 2.77209,-0.25225 4.15774,-0.37798 1.32291,-0.18921 2.64609,-0.37824 3.96875,-0.56697 0.5671,0.31465 1.13419,0.6297 1.70089,0.94495 0.59863,0.69258 1.19719,1.38564 1.79538,2.07886 -0.0942,1.1652 -0.18872,2.33059 -0.28348,3.49628 -0.0627,1.10244 -0.12573,2.2046 -0.18898,3.3073 -0.69287,0.47232 -1.38565,0.94467 -2.07887,1.41741 -0.75602,0.37787 -1.51164,0.75568 -2.26786,1.13392 -2.20552,0.85054 -4.40946,1.70063 -6.61458,2.55134 0.0318,0.53528 0.0633,1.07067 0.0945,1.6064 0.25236,0.4094 0.50423,0.81869 0.75595,1.22843 -0.0942,0.66131 -0.18872,1.32265 -0.28348,1.98437 -0.37788,0.0943 -0.75569,0.18872 -1.13393,0.28348 -0.47259,-0.28398 -0.94467,-0.56723 -1.41741,-0.85044 -0.56679,-0.44131 -1.13366,-0.88221 -1.70089,-1.32292 -0.53524,-0.22077 -1.07067,-0.44124 -1.6064,-0.66146 -0.37781,-0.1893 -0.75569,-0.37824 -1.13393,-0.56696 -1.73261,-0.12629 -3.46452,-0.25225 -5.19717,-0.37798 -0.97631,0.22025 -1.95262,0.44071 -2.92932,0.66146 -0.81894,0.75593 -1.63763,1.51164 -2.45684,2.26786 -0.78745,0.6299 -1.57464,1.25965 -2.36235,1.88988 0.22083,0.50389 0.44123,1.00767 0.66145,1.5119 0.53587,0.50383 1.0712,1.00767 1.6064,1.51191 0.75621,1.07065 1.51217,2.1416 2.26786,3.2128 0.53576,0.97622 1.0712,1.95261 1.6064,2.92931 0.56728,1.03927 1.13419,2.0786 1.70089,3.1183 0.59878,1.44878 1.19719,2.89756 1.79539,4.34673 0.22077,1.00776 0.44124,2.01561 0.66146,3.02381 0.12628,1.35441 0.25225,2.70856 0.37798,4.06324 0.0318,1.16537 0.0633,2.33059 0.0945,3.49628 -0.3778,1.60649 -0.75569,3.21254 -1.13393,4.8192 -0.56681,1.22839 -1.13366,2.45658 -1.70089,3.68527 -0.97643,1.29149 -1.95262,2.58257 -2.92932,3.87425 -1.16543,0.94489 -2.33059,1.88962 -3.49628,2.83482 -1.51202,0.72437 -3.02354,1.44865 -4.53571,2.17337 -1.41745,0.50381 -2.83456,1.00767 -4.25224,1.5119 -2.14208,0.0312 -4.28346,0.0627 -6.42559,0.0945 -5.00855,0.28326 -10.016106,0.56671 -15.024555,0.85045 -2.488215,-0.0318 -4.97642,-0.0633 -7.465028,-0.0945 -3.149867,-0.44128 -6.29934,-0.88221 -9.449405,-1.32292 -1.165244,-0.40977 -2.330588,-0.81921 -3.496279,-1.22842 -1.291325,-0.4728 -2.582574,-0.94521 -3.874256,-1.41741 -1.511814,-0.88231 -3.023545,-1.76416 -4.535715,-2.64583 -1.417222,-1.16576 -2.834556,-2.33112 -4.252233,-3.49629 -1.102188,-1.03971 -2.204595,-2.07913 -3.307291,-3.1183 -0.566703,-1.1657 -1.133663,-2.33112 -1.700893,-3.49628 -0.503655,-1.22857 -1.007671,-2.45711 -1.511903,-3.68527 -1.133541,-0.72464 -2.267593,-1.44917 -3.401788,-2.17336 -1.322731,-0.88226 -2.645568,-1.76415 -3.96875,-2.64583 -0.566724,-1.03975 -1.133662,-2.07914 -1.700892,-3.11831 -0.377677,-0.88213 -0.755687,-1.76415 -1.133927,-2.64583 0.315198,-0.2837 0.630224,-0.56723 0.94494,-0.85045 0.472319,0.22003 0.945203,0.44071 1.41741,0.66146 0.630071,0.31464 1.260184,0.6297 1.889882,0.94494 0.819073,0.22019 1.63816,0.44071 2.456844,0.66146 0.283684,-0.15772 0.56723,-0.31524 0.850448,-0.47247 -0.12559,-0.47221 -0.25172,-0.9452 -0.377979,-1.41741 -0.50351,-0.12621 -1.007671,-0.25225 -1.511903,-0.37798 -0.5354,-0.4729 -1.070668,-0.9452 -1.606399,-1.41741 -0.629716,-0.78774 -1.259655,-1.57516 -1.889882,-2.36235 -1.007628,-1.70109 -2.015606,-3.40205 -3.023809,-5.10267 2.65e-4,-1.13415 2.65e-4,-2.26813 0,-3.40179 0.441134,-0.12623 0.882211,-0.25225 1.322917,-0.37798 0.661252,0.50335 1.323181,1.00768 1.984375,1.51191 1.071133,0.37769 2.14213,0.75568 3.212798,1.13393 1.165524,0.31467 2.331117,0.62969 3.496278,0.94494 1.700895,0.0942 3.402052,0.18872 5.10268,0.28348 0.850585,0.0942 1.701157,0.18872 2.55134,0.28348 1.795161,-0.0632 3.591036,-0.12626 5.38616,-0.18899 0.882073,-0.0632 1.764154,-0.12625 2.645833,-0.18898 0.06324,-1.4802 0.126257,-2.96108 0.188987,-4.44123 0.882047,0.18869 1.764154,0.37771 2.645833,0.56697 1.417357,0.56657 2.835087,1.13366 4.252233,1.70089 1.60651,-0.12624 3.213063,-0.25225 4.819197,-0.37797 1.952797,-0.75609 3.906017,-1.51218 5.858632,-2.26786 0.06325,-0.40967 0.126256,-0.81922 0.188986,-1.22843 -0.755136,-0.59828 -1.511638,-1.19718 -2.267857,-1.79538 -1.039215,-1.16574 -2.078604,-2.33112 -3.118302,-3.49628 -0.661186,-1.10268 -1.322653,-2.20513 -1.984375,-3.30729 -0.629653,-1.51207 -1.259658,-3.02408 -1.889882,-4.53572 -0.37768,-1.1026 -0.755687,-2.20512 -1.133928,-3.30729 -0.346164,-2.39378 -0.692692,-4.78796 -1.039434,-7.18155 0.126244,-1.57502 0.252249,-3.15006 0.377976,-4.7247 0.409665,-1.543393 0.819214,-3.087072 1.228421,-4.63021 -0.28316,-0.378166 -0.566698,-0.756219 -0.850445,-1.13393 -0.724109,-0.913603 -1.448644,-1.827149 -2.173364,-2.740326 0.06326,-0.535713 0.126256,-1.071198 0.188989,-1.6064 1.385422,0.283062 2.77209,0.566701 4.157736,0.850448 -0.06272,-0.220721 -0.125727,-0.441238 -0.188986,-0.661458 -0.157102,-0.25205 -0.314717,-0.504235 -0.472472,-0.755955 -0.818451,-0.724513 -1.63763,-1.449173 -2.456844,-2.173361 -0.692706,-0.567243 -1.385647,-1.134195 -2.078868,-1.700893 -0.598223,-1.165741 -1.19666,-2.331119 -1.795389,-3.49628 -0.125716,-0.315217 -0.251719,-0.630225 -0.377975,-0.944941 0.283622,-0.220655 0.567229,-0.441238 0.850447,-0.661459 z"
           sodipodi:nodetypes="ccccccccccccccccccccccccccccccccccccccccccccccccccccccccccccccccccccccccccccccccccccccccccccccccccccccccccccccccccccccc"
           inkscape:path-effect="#path-effect3737" />
      </a>
      <path
         inkscape:original-d="m 41.317521,143.89602 c 0.02783,-0.15382 0.05539,-0.30737 0.08268,-0.46066 0.08671,-0.18888 0.173506,-0.37824 0.25986,-0.56697 0.110321,-0.17321 0.22075,-0.34674 0.33073,-0.51971 0.196776,-0.20857 0.393988,-0.41762 0.590587,-0.62603 0.32663,-0.0396 0.653849,-0.079 0.980376,-0.11811 0.161547,0.0233 0.32312,0.047 0.48428,0.0709"
         inkscape:path-effect="#path-effect3757"
         inkscape:connector-curvature="0"
         id="path3755"
         d="m 41.317521,143.89602 c 0.02761,-0.15386 0.05517,-0.30741 0.112224,-0.4785 0.05705,-0.17109 0.143841,-0.36046 0.242205,-0.54142 0.09836,-0.18096 0.208794,-0.35449 0.362202,-0.54524 0.153407,-0.19076 0.350621,-0.39981 0.612253,-0.52368 0.261633,-0.12388 0.588849,-0.16331 0.832847,-0.17115 0.243999,-0.008 0.405578,0.0158 0.566782,0.0394"
         style="fill:none;stroke:#000000;stroke-width:0.5;stroke-linecap:butt;stroke-linejoin:miter;stroke-miterlimit:4;stroke-dasharray:none;stroke-opacity:1" />
      <path
         inkscape:original-d="m 39.54576,132.6276 c -0.117854,-0.22075 -0.235972,-0.44123 -0.354354,-0.66146 0.0081,-0.37807 0.01601,-0.75621 0.02363,-1.13392 0.134035,-0.30716 0.267997,-0.61448 0.401598,-0.92132 0.236254,-0.25199 0.472736,-0.50424 0.708705,-0.75596 0.22838,-0.13398 0.456988,-0.26799 0.685083,-0.40159 0.338405,-0.008 0.677471,-0.016 1.015812,-0.0236 0.409411,0.21218 0.819211,0.42496 1.228421,0.63783 0.567092,0.22805 1.134194,0.45646 1.700892,0.68509 0.58284,0.18867 1.165693,0.37771 1.748142,0.56696 1.069602,0.3243 2.139532,0.64905 3.208901,0.97397 0.51245,0.0665 1.024797,0.13337 1.5368,0.20045 0.623618,0.13331 1.247521,0.267 1.870885,0.4009 0.60143,0.0443 1.202978,0.0888 1.804069,0.13364 0.668169,0.0443 1.336614,0.0888 2.004523,0.13363 0.623663,-2.6e-4 1.247521,-2.6e-4 1.870885,0 1.06889,0.0109 2.138423,0.022 3.207237,0.0334 1.035679,-0.0114 2.071603,-0.0225 3.107007,-0.0334"
         inkscape:path-effect="#path-effect3777"
         inkscape:connector-curvature="0"
         id="path3775"
         d="m 39.54576,132.6276 c -0.118169,-0.22058 -0.236284,-0.44106 -0.29138,-0.7403 -0.05509,-0.29923 -0.04721,-0.67738 0.02368,-1.01983 0.07089,-0.34246 0.204851,-0.64978 0.389837,-0.92918 0.184986,-0.27939 0.421467,-0.53164 0.653669,-0.72444 0.232202,-0.19281 0.460811,-0.32682 0.744039,-0.39759 0.283228,-0.0708 0.622297,-0.0787 0.996089,0.0237 0.373791,0.10231 0.783592,0.31509 1.271761,0.53555 0.488169,0.22046 1.055267,0.44888 1.630049,0.65753 0.574781,0.20865 1.157637,0.39769 1.983665,0.65446 0.826029,0.25678 1.895959,0.58152 2.686895,0.77724 0.790935,0.19572 1.303288,0.26255 1.871085,0.36275 0.567796,0.10021 1.191699,0.2339 1.80412,0.32297 0.61242,0.0891 1.213964,0.13363 1.848597,0.17817 0.634634,0.0445 1.303075,0.0891 1.948871,0.11136 0.645796,0.0223 1.269654,0.0223 2.11578,0.0278 0.846126,0.006 1.915658,0.0167 2.967908,0.0167 1.052249,0 2.088172,-0.0111 3.123574,-0.0223"
         style="fill:none;stroke:#000000;stroke-width:0.5;stroke-linecap:butt;stroke-linejoin:miter;stroke-miterlimit:4;stroke-dasharray:none;stroke-opacity:1" />
      <path
         inkscape:original-d="m 65.581259,131.66039 c -0.177913,-0.2564 -0.356094,-0.51253 -0.534537,-0.7684 0.06707,-0.59036 0.133897,-1.18071 0.200451,-1.77066 0.345318,-0.26741 0.69071,-0.53481 1.035669,-0.80181 0.378573,0.0108 0.757528,0.022 1.135896,0.0334 0.423153,0.27795 0.846619,0.55654 1.269529,0.83521 0.868762,0.23357 1.737518,0.46746 2.605878,0.70159 0.946648,0.0331 1.893425,0.0666 2.839739,0.10022 1.22492,-0.16726 2.450234,-0.33435 3.674956,-0.50113 1.247222,-0.28973 2.49478,-0.57935 3.741775,-0.86862 0.3454,-0.12274 0.69071,-0.24527 1.035669,-0.3675"
         inkscape:path-effect="#path-effect3781"
         inkscape:connector-curvature="0"
         id="path3779"
         d="m 65.581259,131.66039 c -0.178217,-0.25619 -0.356395,-0.51232 -0.412048,-0.93555 -0.05565,-0.42324 0.01118,-1.01359 0.217245,-1.44223 0.206067,-0.42865 0.551459,-0.69605 0.913204,-0.824 0.361745,-0.12796 0.740702,-0.11682 1.141366,0.0279 0.400664,0.1447 0.824128,0.42329 1.470024,0.67941 0.645896,0.25612 1.51465,0.49002 2.422191,0.62363 0.907541,0.13361 1.854321,0.16702 2.939957,0.1002 1.085636,-0.0668 2.31095,-0.23391 3.546929,-0.46218 1.235979,-0.22827 2.483539,-0.51788 3.279741,-0.72391 0.796203,-0.20602 1.141513,-0.32855 1.486416,-0.45094"
         style="fill:none;stroke:#000000;stroke-width:0.5;stroke-linecap:butt;stroke-linejoin:miter;stroke-miterlimit:4;stroke-dasharray:none;stroke-opacity:1" />
      <path
         inkscape:path-effect="#path-effect3785"
         inkscape:original-d="m 129.82617,101.12484 c -0.60109,0.34496 -1.20245,0.69019 -1.80407,1.03567 -0.6794,0.79082 -1.35835,1.58108 -2.03793,2.37202 -0.657,1.36998 -1.31381,2.73925 -1.97111,4.10927 -0.17796,0.70148 -0.3561,1.4029 -0.53454,2.10475 -0.87989,0.1 -1.75926,0.20018 -2.63929,0.30067 -0.52915,0.374 -1.05823,0.74802 -1.58774,1.12242 -0.23611,0.75612 -0.47221,1.51164 -0.70871,2.26786 -0.047,0.8978 -0.0942,1.79512 -0.14174,2.69308 0.25233,0.83469 0.50423,1.66913 0.75595,2.50409 0.37832,0.51956 0.75622,1.03917 1.13393,1.55915 0.22077,0.28324 0.44124,0.5667 0.66146,0.85045 0.28378,0.66128 0.56723,1.32265 0.85045,1.98437 0.15778,0.48805 0.31524,0.97618 0.47247,1.46466"
         inkscape:connector-curvature="0"
         id="path3783"
         d="m 129.82617,101.12484 c -0.60104,0.34504 -1.2024,0.69027 -1.84295,1.25837 -0.64054,0.5681 -1.31949,1.35836 -1.98783,2.4388 -0.66834,1.08044 -1.32514,2.44972 -1.74281,3.48547 -0.41766,1.03575 -0.5958,1.73717 -1.12486,2.13824 -0.52906,0.40106 -1.40843,0.50124 -2.11302,0.7384 -0.70459,0.23715 -1.23367,0.61117 -1.61657,1.17638 -0.38291,0.56521 -0.61901,1.32073 -0.76081,2.14776 -0.14179,0.82703 -0.18902,1.72435 -0.0866,2.59073 0.10237,0.86638 0.35428,1.70081 0.6693,2.37814 0.31503,0.67732 0.69293,1.19693 0.99217,1.59854 0.29925,0.40162 0.51971,0.68508 0.77171,1.15755 0.25199,0.47246 0.53543,1.13384 0.75593,1.7087 0.22051,0.57487 0.37797,1.063 0.53551,1.55138"
         style="fill:none;fill-opacity:1;stroke:#000000;stroke-width:0.5;stroke-linecap:butt;stroke-linejoin:miter;stroke-miterlimit:4;stroke-dasharray:none;stroke-opacity:1" />
      <path
         inkscape:original-d="m 76.338858,131.89425 c 0.523668,0.15564 1.04707,0.31155 1.570209,0.46772 1.05786,-0.0114 2.116148,-0.0225 3.173825,-0.0334 1.61461,-2.6e-4 3.229772,-2.6e-4 4.844259,0 1.069168,-0.0782 2.138421,-0.15617 3.207234,-0.23386 0.935461,-0.0671 1.871152,-0.1339 2.806333,-0.20045 0.490108,-0.13386 0.980252,-0.26754 1.46998,-0.40091 0.823819,-0.067 1.648428,-0.1339 2.472245,-0.20045 1.046708,0.0443 2.093875,0.0888 3.140416,0.13364 1.380821,0.35601 2.762051,0.71245 4.142681,1.06907 1.24735,0.53421 2.49478,1.06882 3.74177,1.60362 0.44567,0.55649 0.89116,1.11336 1.33635,1.67044 0.66847,1.06887 1.33661,2.13789 2.00452,3.20723 0.51256,1.62573 1.0248,3.25151 1.5368,4.87767 -0.022,1.29167 -0.0443,2.58334 -0.0668,3.87541 -0.24478,1.2027 -0.48973,2.40516 -0.73499,3.60814 -0.62352,0.95769 -1.24699,1.91516 -1.87089,2.87314 -0.62356,0.60129 -1.24699,1.20245 -1.87088,1.80407 -0.80189,0.53451 -1.60336,1.06882 -2.40543,1.60362 -1.35887,0.71273 -2.71698,1.42517 -4.07586,2.13815 -1.046784,0.22252 -2.093346,0.44519 -3.140416,0.66818 -1.291918,0.0666 -2.583341,0.13337 -3.875407,0.20045 -1.603698,-2.6e-4 -3.20697,-2.6e-4 -4.810853,0 -1.737275,-0.28985 -3.474238,-0.57935 -5.211754,-0.86863 -1.84858,-0.71307 -3.696965,-1.4257 -5.545844,-2.13815 -1.180267,-1.04715 -2.360615,-2.09388 -3.541321,-3.14042 -0.155646,-0.51254 -0.311549,-1.02479 -0.467722,-1.5368 1.425233,-0.24518 2.851139,-0.49026 4.276312,-0.73499 -1.781157,-0.75737 -3.563329,-1.51479 -5.34539,-2.27179 -0.846151,-0.77986 -1.692442,-1.55934 -2.539061,-2.33861 -0.445191,-1.40345 -0.890633,-2.80659 -1.336347,-4.20949 2.071362,0.28924 4.142941,0.57882 6.214017,0.86862 -1.580912,-0.95787 -3.162427,-1.91569 -4.744034,-2.87315 -0.979771,-0.84665 -1.959714,-1.69297 -2.939966,-2.53905 -0.378375,-0.66846 -0.756999,-1.33662 -1.135896,-2.00453 -0.22243,-0.95785 -0.445185,-1.91569 -0.668173,-2.87314 -0.122208,-0.76851 -0.244734,-1.53707 -0.367496,-2.3052"
         inkscape:path-effect="#path-effect3808"
         inkscape:connector-curvature="0"
         id="path3806"
         d="m 76.338858,131.89425 c 0.523573,0.15596 1.046976,0.31186 1.837524,0.38423 0.790548,0.0724 1.848835,0.0612 3.184978,0.0557 1.336142,-0.006 2.951304,-0.006 4.29314,-0.0445 1.341836,-0.039 2.41109,-0.11695 3.413228,-0.18932 1.002138,-0.0724 1.937827,-0.13921 2.650487,-0.23945 0.71266,-0.10024 1.202804,-0.23392 1.859561,-0.33409 0.656757,-0.10018 1.48137,-0.16704 2.416617,-0.17816 0.935248,-0.0111 1.982412,0.0334 3.19606,0.23386 1.213647,0.20043 2.594877,0.55687 3.908837,1.00229 1.31397,0.44541 2.56139,0.98003 3.40765,1.52563 0.84625,0.5456 1.29174,1.10247 1.84856,1.91543 0.55682,0.81295 1.22496,1.88197 1.81519,3.22946 0.59024,1.34749 1.10247,2.97327 1.3475,4.43213 0.24503,1.45887 0.22276,2.75054 0.0891,3.9979 -0.13363,1.24737 -0.37857,2.44983 -0.81289,3.53016 -0.43433,1.08034 -1.0578,2.03781 -1.68149,2.81746 -0.6237,0.77966 -1.24713,1.38082 -1.96,1.94892 -0.71287,0.56809 -1.51434,1.1024 -2.59481,1.72618 -1.08046,0.62378 -2.43857,1.33623 -3.64141,1.80403 -1.202833,0.46779 -2.249394,0.69047 -3.418903,0.83528 -1.16951,0.1448 -2.460931,0.2116 -3.90882,0.24501 -1.447888,0.0334 -3.05116,0.0334 -4.721764,-0.11136 -1.670603,-0.14478 -3.407567,-0.43427 -5.200651,-0.93544 -1.793085,-0.50116 -3.641471,-1.21379 -5.156105,-2.09361 -1.514635,-0.87982 -2.694985,-1.92655 -3.363194,-2.70618 -0.668209,-0.77963 -0.824112,-1.29188 -0.189406,-1.67042 0.634705,-0.37854 2.060612,-0.62362 1.882533,-1.12461 -0.178078,-0.501 -1.960249,-1.25842 -3.274415,-2.02687 -1.314165,-0.76845 -2.160457,-1.54793 -2.806393,-2.63938 -0.645936,-1.09145 -1.091378,-2.49459 -0.278416,-3.05132 0.812961,-0.55673 2.884541,-0.26716 3.129552,-0.60119 0.24501,-0.33403 -1.336505,-1.29185 -2.617223,-2.19391 -1.280717,-0.90207 -2.260665,-1.74839 -2.940014,-2.50571 -0.679348,-0.75732 -1.057971,-1.42548 -1.358632,-2.23841 -0.30066,-0.81294 -0.523414,-1.77078 -0.696008,-2.63377 -0.172595,-0.86299 -0.295119,-1.63155 -0.417582,-2.39973"
         style="fill:none;fill-opacity:1;stroke:#000000;stroke-width:0.5;stroke-linecap:butt;stroke-linejoin:miter;stroke-miterlimit:4;stroke-dasharray:none;stroke-opacity:1" />
      <path
         inkscape:original-d="m 91.673446,112.91811 c 0.423442,0.37837 0.846619,0.757 1.269532,1.1359 0.02254,0.71243 0.04481,1.42517 0.06682,2.13815 0.111664,1.0692 0.222988,2.1379 0.334086,3.20724 0.334423,0.51211 0.668438,1.02427 1.00226,1.5368 0.334394,0.35614 0.668438,0.71245 1.002261,1.06908 0.534818,0.48974 1.069342,0.97972 1.603618,1.46998 0.534792,0.267 1.069343,0.53427 1.603616,0.80181 0.868719,-0.0225 1.737511,-0.0448 2.605881,-0.0668 1.31392,-0.0671 2.62841,-0.1339 3.94222,-0.20045 1.09139,-0.15614 2.18297,-0.31208 3.27405,-0.46773 -0.53413,0.84586 -1.06881,1.69245 -1.60362,2.53906 -0.9578,0.22255 -1.91516,0.44519 -2.87314,0.66818 -1.136,0.11113 -2.27153,0.22246 -3.40769,0.33409 -1.180472,-0.44583 -2.360614,-0.89117 -3.541317,-1.33635 -0.868468,-0.53487 -1.73699,-1.06934 -2.605879,-1.60362 -0.623416,-0.5794 -1.246994,-1.15843 -1.870887,-1.73725 -0.489738,-0.80209 -0.979723,-1.60388 -1.469982,-2.40543 -0.155628,-1.18059 -0.31155,-2.36114 -0.46772,-3.54132 0.06707,-1.0914 0.133897,-2.18296 0.200451,-3.27405 0.311999,-0.0893 0.623892,-0.17844 0.935442,-0.26727 z"
         inkscape:path-effect="#path-effect3812"
         inkscape:connector-curvature="0"
         id="path3810"
         d="m 91.885043,113.10743 c 0.211596,0.18933 0.634772,0.56796 0.857486,1.11349 0.222714,0.54553 0.244988,1.25827 0.311817,2.14937 0.06683,0.8911 0.178152,1.9598 0.400903,2.75061 0.22275,0.79081 0.556767,1.30297 0.890891,1.73733 0.334125,0.43437 0.668167,0.79068 1.102498,1.21387 0.434332,0.4232 0.968856,0.91318 1.503437,1.29183 0.534581,0.37865 1.06913,0.64592 1.770709,0.7684 0.70158,0.12247 1.570376,0.1002 2.661526,0.0557 1.09114,-0.0445 2.40563,-0.11138 3.60824,-0.22274 1.20261,-0.11136 2.29419,-0.2673 2.57262,0.0777 0.27842,0.34498 -0.25627,1.19156 -1.00251,1.72626 -0.74625,0.5347 -1.70361,0.75734 -2.75061,0.92443 -1.047,0.16708 -2.18253,0.27841 -3.34092,0.11135 -1.158383,-0.16706 -2.338526,-0.6124 -3.363146,-1.10243 -1.02462,-0.49003 -1.893139,-1.0245 -2.639326,-1.58136 -0.746187,-0.55685 -1.369762,-1.13589 -1.926606,-1.82638 -0.556844,-0.6905 -1.046827,-1.49229 -1.369762,-2.48344 -0.322936,-0.99114 -0.478858,-2.17169 -0.523386,-3.30751 -0.04453,-1.13582 0.0223,-2.22738 0.211722,-2.81749 0.189421,-0.59011 0.501321,-0.67923 0.657071,-0.72373 0.155751,-0.0445 0.155749,-0.0445 0.367346,0.1448 z"
         style="fill:#ff7f2a;fill-opacity:1;stroke:#000000;stroke-width:0.5;stroke-linecap:butt;stroke-linejoin:miter;stroke-miterlimit:4;stroke-dasharray:none;stroke-opacity:1" />
      <path
         inkscape:original-d="m 112.45365,89.532028 c 0.64617,-0.245261 1.29207,-0.49026 1.93771,-0.734992 1.04655,0.200089 2.09387,0.40064 3.14041,0.601356 0.49016,0.578707 0.98025,1.157904 1.46999,1.737254 0.468,0.578842 0.9357,1.157901 1.40316,1.737251 0.40119,0.846133 0.80207,1.692442 1.20271,2.539061 0.28985,1.046681 0.57935,2.093346 0.86863,3.140416 0.0671,1.380864 0.1339,2.761516 0.20045,4.142676 -0.46754,0.80169 -0.93518,1.60335 -1.40316,2.40543 -1.06923,0.66817 -2.13789,1.33608 -3.20724,2.00452 -0.71266,-0.1785 -1.42517,-0.35663 -2.13815,-0.53454 -0.73492,-0.80228 -1.46972,-1.60388 -2.20498,-2.40543 -0.69017,-0.89114 -1.38062,-1.78206 -2.07134,-2.67269 -0.46743,-1.18066 -0.93518,-2.361147 -1.40316,-3.541321 -0.0888,-1.559155 -0.17792,-3.118411 -0.26727,-4.677217 0.26749,-0.935559 0.5348,-1.871152 0.80181,-2.806332 0.55689,-0.311973 1.11389,-0.623893 1.67043,-0.935442 z"
         inkscape:path-effect="#path-effect3816"
         inkscape:connector-curvature="0"
         id="path3814"
         d="m 112.49852,89.565286 c 0.60135,-0.278377 1.24725,-0.523373 2.09329,-0.545615 0.84604,-0.02224 1.89336,0.178308 2.6616,0.567987 0.76824,0.389679 1.25833,0.968875 1.7372,1.547969 0.47886,0.579093 0.94656,1.158152 1.38087,1.870853 0.43431,0.712701 0.83519,1.55901 1.18044,2.505628 0.34524,0.946619 0.63475,1.993282 0.81295,3.207213 0.17821,1.213931 0.24501,2.594579 0.0446,3.685979 -0.20039,1.09139 -0.66803,1.89306 -1.43657,2.62824 -0.76855,0.73518 -1.83721,1.40309 -2.72827,1.64818 -0.89107,0.24509 -1.60358,0.067 -2.32763,-0.42316 -0.72404,-0.49013 -1.45884,-1.29173 -2.17157,-2.13809 -0.71272,-0.84635 -1.40318,-1.73727 -1.98227,-2.77296 -0.57909,-1.0357 -1.04683,-2.216192 -1.3252,-3.585911 -0.27838,-1.369718 -0.36748,-2.928975 -0.27836,-4.17619 0.0891,-1.247215 0.35643,-2.182808 0.76849,-2.806316 0.41206,-0.623509 0.96906,-0.935429 1.57042,-1.213807 z"
         style="fill:#000000;fill-opacity:1;stroke:#000000;stroke-width:0.5;stroke-linecap:butt;stroke-linejoin:miter;stroke-miterlimit:4;stroke-dasharray:none;stroke-opacity:1" />
      <path
         inkscape:original-d="m 117.13087,96.414218 c 0.46799,-2.64e-4 0.93571,-2.64e-4 1.40316,0 0.26739,0.244594 0.53481,0.489731 0.80181,0.734992 0.35661,0.578792 0.71299,1.157904 1.06908,1.737251 0.15619,0.757095 0.31208,1.514259 0.46772,2.271789 -0.0889,0.69037 -0.17791,1.38063 -0.26727,2.07134 -0.60134,0.2894 -1.20245,0.57882 -1.80407,0.86863 -0.60141,-0.28996 -1.20244,-0.57935 -1.80406,-0.86863 -0.33389,-0.9136 -0.66791,-1.82661 -1.00227,-2.73951 -0.0888,-0.846482 -0.17791,-1.692974 -0.26727,-2.539061 0.22293,-0.378793 0.44572,-0.757529 0.66818,-1.135896 0.24506,-0.133789 0.49026,-0.267533 0.73499,-0.400905 z"
         inkscape:path-effect="#path-effect3820"
         inkscape:connector-curvature="0"
         id="path3818"
         d="m 117.24252,96.480949 c 0.35634,-0.06673 0.82406,-0.06673 1.19135,0.05571 0.36729,0.122437 0.63472,0.367573 0.94649,0.779556 0.31178,0.411984 0.66816,0.991097 0.9243,1.659253 0.25615,0.668156 0.41203,1.425317 0.44547,2.149227 0.0334,0.72391 -0.0556,1.41416 -0.40084,1.90428 -0.34521,0.49013 -0.94632,0.77955 -1.54793,0.77958 -0.60162,3e-5 -1.20265,-0.28936 -1.67049,-0.8909 -0.46784,-0.60154 -0.80187,-1.51455 -1.01343,-2.39429 -0.21157,-0.87973 -0.30067,-1.726223 -0.23378,-2.338702 0.0669,-0.612479 0.28968,-0.991216 0.5235,-1.247224 0.23383,-0.256008 0.47903,-0.389753 0.83536,-0.456485 z"
         style="fill:#ffffff;fill-opacity:1;stroke:#ffffff;stroke-width:0.5;stroke-linecap:butt;stroke-linejoin:miter;stroke-miterlimit:4;stroke-dasharray:none;stroke-opacity:1" />
      <path
         transform="scale(0.26458333)"
         inkscape:connector-curvature="0"
         id="path4899"
         d="m 156.96787,487.14895 c -1.77021,-0.0637 -3.49929,0.61152 -4.6908,1.93211 -2.05557,1.85981 -3.53357,4.46668 -3.59423,7.27823 0.10072,0.89728 1.22227,0.57363 1.49501,-0.0449 1.44104,-1.93247 4.1148,-1.1132 5.87489,-0.14546 3.62337,1.95929 7.07722,4.28066 11.00967,5.60786 9.12626,3.5365 18.76629,5.75865 28.54017,6.3895 6.99363,0.54534 13.98331,1.28409 20.99909,1.44875 7.35304,-0.0309 14.72632,-0.0543 22.05361,-0.71982 2.3159,-0.19301 4.82188,-1.18947 5.79841,-3.46302 0.4943,-1.20998 1.15562,-2.50041 1.14698,-3.81555 -0.64346,-0.78884 -1.89429,-0.35678 -2.78458,-0.50478 -2.14053,0.0419 -4.31551,-0.13467 -6.43543,0.17471 -0.89976,0.36533 -1.98653,0.2021 -2.95929,0.17746 -0.6864,-0.62666 -1.83177,-0.31112 -2.6917,-0.26827 -1.18399,0.52956 -2.62783,0.14528 -3.90807,0.23237 -4.07696,-0.55702 -8.26423,-0.31596 -12.37628,-0.57425 -6.55425,-0.21872 -13.0652,-0.84123 -19.49497,-2.13506 -8.57129,-1.39965 -16.90682,-4.08106 -25.10589,-6.88921 -3.8389,-1.26952 -7.4121,-3.2193 -11.23415,-4.54811 -0.5391,-0.11423 -1.0928,-0.14023 -1.64244,-0.13258 z m -6.28524,7.25544 c 0.5297,0.39451 -0.8528,-0.004 0,0 z m 85.41353,7.26096 c 0.0906,-0.29547 0.15949,-0.22212 0,0 z m -9.77313,0.26206 c -0.19518,0.45946 -0.0196,-0.12804 0,0 z m 3.95918,0.047 c -0.009,-0.004 -0.0127,-0.0612 0,0 z"
         style="fill:#000000;fill-opacity:1;stroke:none;stroke-width:0.33406621;stroke-linecap:round;stroke-linejoin:bevel;stroke-miterlimit:4;stroke-dasharray:none;stroke-opacity:1;paint-order:stroke fill markers" />
      <path
         transform="scale(0.26458333)"
         inkscape:connector-curvature="0"
         id="path4909"
         d="m 311.32174,485.55197 c -2.04221,0.40795 -4.02029,1.15435 -6.05284,1.59313 -5.77438,1.44078 -11.6096,2.55844 -17.48647,3.48499 -0.31398,0.28741 -0.77354,0.007 -1.0813,0.32544 -0.69567,-0.41951 -1.45144,0.17389 -2.17505,0.0229 -0.42696,0.0484 -0.86432,0.11626 -1.23486,0.35352 -3.3544,0.46989 -6.79674,0.0908 -10.19171,-0.0555 -5.36337,-0.35276 -10.69055,-1.58776 -15.56646,-3.99953 -1.73152,-0.72275 -3.43029,-1.8706 -5.39173,-1.66911 -0.562,-0.0226 -1.12757,0.14695 -1.47461,0.58715 -1.12979,0.74418 -1.53271,2.13998 -2.39771,3.13282 -0.57254,0.83504 -0.97432,1.80722 -1.60254,2.57714 -0.113,1.0648 -0.055,2.20866 0.35157,3.20728 0.67641,0.61252 1.20824,-0.40946 1.7063,-0.77417 1.77711,-1.44368 4.28423,-1.00623 6.30655,-0.52186 6.96385,1.96464 13.71077,5.04651 21.01889,5.52332 4.28159,0.19291 8.6145,-0.0696 12.79858,-1.0205 6.11224,-1.23472 12.0634,-3.25774 17.74252,-5.8278 2.16961,-1.07235 4.65198,-2.07683 5.96573,-4.23348 0.31375,-0.87615 -0.11225,-1.92578 -0.71973,-2.57642 -0.14706,-0.10849 -0.33625,-0.13962 -0.51513,-0.12939 z m -24.42407,5.81909 c -0.0225,0.26453 -0.0251,-0.20091 0,0 z m -39.4524,0.20312 c 0.0197,0.009 -0.0464,-0.0143 0,0 z"
         style="fill:#000000;fill-opacity:1;stroke:none;stroke-width:0.23622048;stroke-linecap:round;stroke-linejoin:bevel;stroke-miterlimit:4;stroke-dasharray:none;stroke-opacity:1;paint-order:stroke fill markers" />
      <path
         transform="scale(0.26458333)"
         inkscape:connector-curvature="0"
         id="path4911"
         d="m 249.69225,486.46924 c -0.42006,0.17161 -0.74805,0.51 -1.07647,0.81378 -0.78746,0.78232 -1.28373,1.80922 -1.56649,2.87273 -0.1033,0.26179 -0.15121,0.61964 0.11388,0.80194 0.28686,0.23265 0.70929,0.0549 0.84934,-0.25786 0.30549,-0.51401 0.6011,-1.02129 0.96472,-1.48589 0.4374,-0.65406 0.83446,-1.32882 1.26892,-1.97486 0.203,-0.3094 -0.0228,-0.76746 -0.39533,-0.78546 -0.0532,-0.004 -0.10573,0.0117 -0.15857,0.0156 z"
         style="fill:#000000;fill-opacity:1;stroke:none;stroke-width:0.05905512;stroke-linecap:round;stroke-linejoin:bevel;stroke-miterlimit:4;stroke-dasharray:none;stroke-opacity:1;paint-order:stroke fill markers" />
    </g>
  </g>
</svg>
