<?xml version="1.0" standalone="no"?>
<!DOCTYPE svg PUBLIC "-//W3C//DTD SVG 20010904//EN"
 "http://www.w3.org/TR/2001/REC-SVG-20010904/DTD/svg10.dtd">
<svg version="1.0" xmlns="http://www.w3.org/2000/svg" viewBox="0 0 512.000000 512.000000"
 preserveAspectRatio="xMidYMid meet">

<g transform="translate(0.000000,512.000000) scale(0.100000,-0.100000)"
fill="#000000" stroke="none">
<path d="M2315 5109 c-719 -74 -1370 -439 -1799 -1009 -505 -670 -649 -1542
-386 -2340 153 -467 441 -882 825 -1193 302 -244 705 -435 1075 -511 212 -43
294 -51 530 -51 310 0 525 34 798 124 774 255 1378 859 1633 1631 90 276 124
489 124 800 0 310 -34 525 -124 798 -127 387 -324 708 -614 1001 -397 402
-883 648 -1457 736 -126 19 -477 28 -605 14z m1440 -1543 c44 -19 65 -61 65
-131 0 -65 -423 -2072 -445 -2116 -34 -64 -105 -86 -178 -55 -18 8 -176 120
-351 249 l-319 236 -182 -173 c-132 -127 -190 -176 -214 -181 -18 -4 -35 -5
-37 -2 -3 3 4 148 16 324 17 236 26 322 37 333 7 8 278 254 601 545 323 292
587 537 587 545 0 10 -11 15 -35 15 -29 0 -165 -83 -770 -464 -404 -255 -742
-466 -751 -468 -19 -5 -651 191 -691 215 -15 9 -33 29 -39 45 -10 24 -9 32 8
55 11 15 38 37 60 49 31 18 2301 899 2508 973 62 23 86 24 130 6z"/>
</g>
</svg>
